<svg width="347" height="43" viewBox="0 0 347 43" fill="none" xmlns="http://www.w3.org/2000/svg">
<path opacity="0.4" d="M0.96 36L8.16 1.92H12.48L6.576 29.904L31.056 1.92H35.088L27.888 36H23.568L29.52 8.352L5.232 36H0.96ZM43.1299 1.92H47.4499L44.3299 16.656H61.8499L64.9699 1.92H69.2899L62.0419 36H57.7219L61.0339 20.496H43.5139L40.2019 36H35.8819L43.1299 1.92ZM85.7966 32.112C83.5886 32.08 81.5406 31.728 79.6526 31.056C77.7966 30.384 76.2126 29.44 74.9006 28.224C73.5886 26.976 72.6446 25.488 72.0686 23.76C71.4926 22.032 71.3966 20.08 71.7806 17.904C72.1966 15.632 72.9966 13.632 74.1806 11.904C75.3646 10.144 76.8366 8.656 78.5966 7.44C80.3886 6.224 82.3566 5.312 84.5006 4.704C86.6446 4.064 88.8686 3.744 91.1726 3.744L90.7886 7.344C88.3246 7.344 86.0526 7.776 83.9726 8.64C81.9246 9.472 80.2126 10.672 78.8366 12.24C77.4926 13.808 76.6126 15.696 76.1966 17.904C75.7806 20.176 75.9886 22.096 76.8206 23.664C77.6846 25.2 78.9486 26.384 80.6126 27.216C82.2766 28.016 84.1326 28.448 86.1806 28.512L85.7966 32.112ZM84.0206 36L84.9806 31.392L85.2686 30.672L90.6926 4.8L90.7406 4.08L91.5086 0.335999H95.6366L94.8686 4.08L94.5806 4.8L89.1086 30.72L89.0606 31.44L88.1006 36H84.0206ZM88.4366 32.112L88.8686 28.512C91.2686 28.512 93.5086 28.096 95.5886 27.264C97.6686 26.4 99.4126 25.168 100.821 23.568C102.261 21.968 103.173 20.08 103.557 17.904C103.941 15.664 103.717 13.776 102.885 12.24C102.085 10.672 100.853 9.472 99.1886 8.64C97.5566 7.808 95.6846 7.376 93.5726 7.344L93.9086 3.744C96.0846 3.776 98.1006 4.112 99.9566 4.752C101.845 5.392 103.445 6.32 104.757 7.536C106.101 8.752 107.061 10.24 107.637 12C108.245 13.728 108.357 15.696 107.973 17.904C107.589 20.08 106.805 22.048 105.621 23.808C104.437 25.536 102.949 27.024 101.157 28.272C99.3646 29.52 97.3806 30.48 95.2046 31.152C93.0286 31.792 90.7726 32.112 88.4366 32.112ZM125.541 36.24C123.109 36.24 120.949 35.76 119.061 34.8C117.205 33.84 115.669 32.544 114.453 30.912C113.237 29.248 112.373 27.392 111.861 25.344C111.381 23.264 111.285 21.136 111.573 18.96C111.893 16.688 112.613 14.528 113.733 12.48C114.853 10.4 116.261 8.56 117.957 6.96C119.685 5.328 121.621 4.048 123.765 3.12C125.909 2.16 128.165 1.68 130.533 1.68C132.997 1.68 135.157 2.16 137.013 3.12C138.869 4.08 140.405 5.392 141.621 7.056C142.837 8.688 143.685 10.544 144.165 12.624C144.645 14.672 144.741 16.8 144.453 19.008C144.133 21.344 143.413 23.552 142.293 25.632C141.205 27.712 139.797 29.552 138.069 31.152C136.373 32.72 134.453 33.968 132.309 34.896C130.165 35.792 127.909 36.24 125.541 36.24ZM126.165 32.352C128.053 32.352 129.781 31.968 131.349 31.2C132.949 30.432 134.357 29.408 135.573 28.128C136.821 26.848 137.829 25.408 138.597 23.808C139.365 22.208 139.861 20.592 140.085 18.96C140.341 17.136 140.293 15.424 139.941 13.824C139.589 12.224 138.965 10.816 138.069 9.6C137.173 8.352 136.037 7.376 134.661 6.672C133.285 5.968 131.701 5.616 129.909 5.616C128.053 5.616 126.325 6 124.725 6.768C123.125 7.504 121.701 8.512 120.453 9.792C119.237 11.072 118.245 12.512 117.477 14.112C116.709 15.68 116.197 17.296 115.941 18.96C115.717 20.688 115.765 22.368 116.085 24C116.437 25.6 117.061 27.024 117.957 28.272C118.853 29.52 119.989 30.512 121.365 31.248C122.741 31.984 124.341 32.352 126.165 32.352ZM154.036 1.92H167.572C169.204 1.92 170.596 2.352 171.748 3.216C172.932 4.08 173.828 5.2 174.436 6.576C175.044 7.952 175.348 9.408 175.348 10.944C175.348 12.48 175.028 14.016 174.388 15.552C173.748 17.056 172.868 18.432 171.748 19.68C170.628 20.928 169.332 21.92 167.86 22.656C166.388 23.392 164.82 23.76 163.156 23.76H153.7L151.108 36H146.788L154.036 1.92ZM163.732 19.92C164.692 19.92 165.604 19.68 166.468 19.2C167.364 18.72 168.132 18.08 168.772 17.28C169.444 16.448 169.972 15.52 170.356 14.496C170.74 13.472 170.932 12.416 170.932 11.328C170.932 10.24 170.74 9.28 170.356 8.448C169.972 7.616 169.444 6.96 168.772 6.48C168.1 6 167.332 5.76 166.468 5.76H157.54L154.516 19.92H163.732ZM182.864 1.92H187.424L194.24 24.048L210.512 1.92H215.024L207.776 36H203.456L209.072 9.648L194.24 29.856H191.792L185.552 9.648L179.936 36H175.616L182.864 1.92ZM233.019 1.92H236.715L242.619 36H238.011L236.379 26.016H223.035L217.227 36H212.619L233.019 1.92ZM236.187 22.656L233.835 6.912L224.571 22.656H236.187ZM270.595 42.48L271.939 36H246.163L253.411 1.92H257.731L251.299 32.16H268.051L274.483 1.92H278.803L272.371 32.16H276.595L274.435 42.48H270.595ZM281.46 36L288.66 1.92H292.98L287.076 29.904L311.556 1.92H315.588L308.388 36H304.068L310.02 8.352L285.732 36H281.46ZM315.422 36L327.182 21.216C324.942 20.576 323.326 19.36 322.334 17.568C321.374 15.744 321.102 13.616 321.518 11.184C321.87 9.328 322.606 7.712 323.726 6.336C324.878 4.928 326.334 3.84 328.094 3.072C329.854 2.304 331.838 1.92 334.046 1.92H346.958L339.758 36H335.438L338.318 22.32H332.414C332.222 22.32 332.03 22.32 331.838 22.32C331.678 22.32 331.502 22.32 331.31 22.32L320.558 36H315.422ZM331.79 18.528H339.134L341.822 5.712H334.19C332.046 5.712 330.19 6.24 328.622 7.296C327.054 8.32 326.094 9.872 325.742 11.952C325.55 13.168 325.63 14.288 325.982 15.312C326.334 16.304 326.99 17.088 327.95 17.664C328.942 18.24 330.222 18.528 331.79 18.528Z" fill="#8C9DA5"/>
</svg>
