<svg width="733" height="81" viewBox="0 0 733 81" fill="none" xmlns="http://www.w3.org/2000/svg">
<path opacity="0.3" d="M51.712 67.48C46.016 67.48 40.96 66.2 36.544 63.64C32.128 61.08 28.576 57.496 25.888 52.888C23.2 48.216 21.632 42.776 21.184 36.568H8.8V67H0.16V-1.16H8.8V28.888H21.28C21.792 22.552 23.424 17.112 26.176 12.568C28.928 8.024 32.512 4.536 36.928 2.10399C41.408 -0.392004 46.368 -1.64 51.808 -1.64C58.08 -1.64 63.552 -0.168003 68.224 2.776C72.896 5.72 76.544 9.816 79.168 15.064C81.792 20.248 83.104 26.232 83.104 33.016C83.104 40.312 81.728 46.52 78.976 51.64C76.224 56.76 72.48 60.696 67.744 63.448C63.072 66.136 57.728 67.48 51.712 67.48ZM51.808 59.704C56.48 59.704 60.48 58.552 63.808 56.248C67.136 53.944 69.696 50.776 71.488 46.744C73.344 42.712 74.272 38.104 74.272 32.92C74.272 27.416 73.312 22.68 71.392 18.712C69.472 14.744 66.816 11.672 63.424 9.496C60.096 7.32 56.192 6.232 51.712 6.232C47.168 6.232 43.232 7.384 39.904 9.688C36.64 11.928 34.112 15.064 32.32 19.096C30.592 23.064 29.728 27.672 29.728 32.92C29.728 38.36 30.624 43.096 32.416 47.128C34.272 51.16 36.864 54.264 40.192 56.44C43.52 58.616 47.392 59.704 51.808 59.704ZM95.1288 67V-1.16H123.545C126.553 -1.16 129.305 -0.520004 131.801 0.759995C134.297 1.976 136.473 3.64 138.329 5.752C140.185 7.8 141.625 10.136 142.649 12.76C143.673 15.32 144.185 17.944 144.185 20.632C144.185 24.344 143.353 27.896 141.689 31.288C140.025 34.616 137.689 37.336 134.681 39.448C131.673 41.496 128.153 42.52 124.121 42.52H103.769V67H95.1288ZM103.769 34.84H123.641C126.009 34.84 128.057 34.2 129.785 32.92C131.577 31.64 132.953 29.912 133.913 27.736C134.937 25.56 135.449 23.192 135.449 20.632C135.449 17.944 134.873 15.544 133.721 13.432C132.569 11.256 131.065 9.56 129.209 8.344C127.353 7.128 125.305 6.51999 123.065 6.51999H103.769V34.84ZM155.421 67V-1.16H164.061V55L203.517 -1.16H211.581V67H202.941V11.896L163.965 67H155.421ZM223.548 80.056V59.32H226.62C228.412 59.32 229.98 58.616 231.324 57.208C232.668 55.736 233.82 53.432 234.78 50.296C235.74 47.096 236.508 42.84 237.084 37.528C237.66 32.216 238.076 25.656 238.332 17.848L238.812 -1.16H281.052V59.32H289.5V80.056H281.82V67H231.228V80.056H223.548ZM238.14 59.32H272.412V6.51999H246.78L246.492 18.904C246.3 26.968 245.884 33.72 245.244 39.16C244.604 44.6 243.708 48.952 242.556 52.216C241.404 55.48 239.932 57.848 238.14 59.32ZM301.484 67V-1.16H310.124V55L349.58 -1.16H357.644V67H349.004V11.896L310.028 67H301.484ZM411.85 67V38.488C410.634 39 409.194 39.544 407.53 40.12C405.866 40.696 403.946 41.176 401.77 41.56C399.658 41.88 397.322 42.04 394.762 42.04C387.21 42.04 381.61 40.376 377.962 37.048C374.314 33.656 372.49 28.28 372.49 20.92V-1.16H380.842V19.96C380.842 24.888 382.026 28.504 384.394 30.808C386.826 33.048 390.762 34.168 396.202 34.168C399.018 34.168 401.866 33.848 404.746 33.208C407.69 32.568 410.058 31.768 411.85 30.808V-1.16H420.298V67H411.85ZM482.932 59.32V67H436.66V-1.16H482.068V6.51999H445.3V28.6H477.268V35.8H445.3V59.32H482.932ZM489.057 32.44C489.057 28.28 489.761 24.216 491.169 20.248C492.641 16.216 494.753 12.568 497.505 9.304C500.321 5.976 503.745 3.352 507.777 1.432C511.809 -0.552004 516.385 -1.544 521.505 -1.544C527.585 -1.544 532.801 -0.136003 537.153 2.68C541.505 5.432 544.737 8.984 546.849 13.336L540.033 17.752C538.689 14.872 536.961 12.6 534.849 10.936C532.801 9.208 530.561 7.992 528.129 7.288C525.761 6.584 523.425 6.232 521.121 6.232C517.345 6.232 513.985 7 511.041 8.536C508.161 10.072 505.729 12.12 503.745 14.68C501.761 17.24 500.257 20.12 499.233 23.32C498.273 26.456 497.793 29.624 497.793 32.824C497.793 36.344 498.369 39.736 499.521 43C500.737 46.264 502.401 49.144 504.513 51.64C506.625 54.136 509.121 56.12 512.001 57.592C514.881 59.064 518.017 59.8 521.409 59.8C523.777 59.8 526.209 59.384 528.705 58.552C531.201 57.72 533.537 56.44 535.713 54.712C537.889 52.92 539.617 50.616 540.897 47.8L548.097 51.736C546.689 55.128 544.513 58.008 541.569 60.376C538.625 62.744 535.329 64.536 531.681 65.752C528.097 66.968 524.545 67.576 521.025 67.576C516.353 67.576 512.065 66.584 508.161 64.6C504.257 62.552 500.865 59.864 497.984 56.536C495.169 53.144 492.961 49.368 491.361 45.208C489.825 40.984 489.057 36.728 489.057 32.44ZM558.91 67V-1.16H567.55V28.312H576.67L599.134 -1.16H609.118L583.774 31.864L610.846 67H600.286L576.862 36.184H567.55V67H558.91ZM642.177 -1.16H649.473L677.313 67H668.097L660.033 47.032H631.425L623.457 67H614.241L642.177 -1.16ZM658.113 40.312L645.825 8.824L633.153 40.312H658.113ZM684.49 67L702.25 38.584C697.578 37.368 693.93 35 691.306 31.48C688.746 27.96 687.466 23.768 687.466 18.904C687.466 15.128 688.394 11.736 690.25 8.72799C692.106 5.72 694.698 3.32 698.026 1.528C701.418 -0.264004 705.386 -1.16 709.93 -1.16H732.778V67H724.138V39.64H713.578C713.194 39.64 712.778 39.64 712.33 39.64C711.946 39.64 711.562 39.64 711.178 39.64L694.474 67H684.49ZM710.602 32.152H724.138V6.328H710.986C708.17 6.328 705.642 6.84 703.402 7.86399C701.162 8.888 699.402 10.328 698.122 12.184C696.906 14.04 696.298 16.28 696.298 18.904C696.298 21.528 696.842 23.832 697.93 25.816C699.082 27.8 700.714 29.368 702.826 30.52C705.002 31.608 707.594 32.152 710.602 32.152Z" fill="#8C9DA5"/>
</svg>
