<svg width="800" height="69" viewBox="0 0 800 69" fill="none" xmlns="http://www.w3.org/2000/svg">
<path opacity="0.7" d="M0.64 68.88V50.08H3.36C4.85333 50.08 6.13333 49.4933 7.2 48.32C8.32 47.1467 9.25333 45.28 10 42.72C10.8 40.16 11.4133 36.8 11.84 32.64C12.32 28.4267 12.6667 23.28 12.88 17.2L13.28 1.2H49.84V50.08H57.04V68.88H49.12V58H8.56V68.88H0.64ZM14.72 50.08H40.8V9.12H21.6L21.36 18.4C21.2 24.5333 20.88 29.7333 20.4 34C19.92 38.2133 19.2267 41.6267 18.32 44.24C17.4133 46.8533 16.2133 48.8 14.72 50.08ZM89.7969 58.4C85.6902 58.4 81.9835 57.6 78.6769 56C75.3702 54.4 72.5169 52.24 70.1169 49.52C67.7169 46.7467 65.8502 43.6533 64.5169 40.24C63.2369 36.7733 62.5969 33.2267 62.5969 29.6C62.5969 25.8133 63.2902 22.2133 64.6769 18.8C66.0635 15.3333 67.9835 12.2667 70.4369 9.6C72.8902 6.88 75.7702 4.74666 79.0769 3.2C82.4369 1.6 86.0635 0.799997 89.9569 0.799997C94.0102 0.799997 97.6902 1.62666 100.997 3.28C104.357 4.93333 107.21 7.14666 109.557 9.92C111.957 12.6933 113.797 15.7867 115.077 19.2C116.41 22.6133 117.077 26.1067 117.077 29.68C117.077 33.4667 116.384 37.0933 114.997 40.56C113.664 43.9733 111.77 47.04 109.317 49.76C106.864 52.4267 103.957 54.5333 100.597 56.08C97.2902 57.6267 93.6902 58.4 89.7969 58.4ZM71.7169 29.6C71.7169 32.2667 72.1435 34.8533 72.9969 37.36C73.8502 39.8667 75.0502 42.1067 76.5969 44.08C78.1969 46 80.1169 47.52 82.3569 48.64C84.5969 49.76 87.1035 50.32 89.8769 50.32C92.7569 50.32 95.3169 49.7333 97.5569 48.56C99.7969 47.3867 101.664 45.8133 103.157 43.84C104.704 41.8133 105.877 39.5733 106.677 37.12C107.477 34.6133 107.877 32.1067 107.877 29.6C107.877 26.9333 107.45 24.3733 106.597 21.92C105.797 19.4133 104.597 17.2 102.997 15.28C101.397 13.3067 99.4769 11.76 97.2369 10.64C95.0502 9.52 92.5969 8.96 89.8769 8.96C86.9969 8.96 84.4369 9.54666 82.1969 10.72C79.9569 11.8933 78.0635 13.4667 76.5169 15.44C74.9702 17.4133 73.7702 19.6267 72.9169 22.08C72.1169 24.5333 71.7169 27.04 71.7169 29.6ZM126.433 58V1.2H171.313V58H162.273V9.12H135.393V58H126.433ZM207.766 58.4C203.659 58.4 199.952 57.6 196.646 56C193.339 54.4 190.486 52.24 188.086 49.52C185.686 46.7467 183.819 43.6533 182.486 40.24C181.206 36.7733 180.566 33.2267 180.566 29.6C180.566 25.8133 181.259 22.2133 182.646 18.8C184.032 15.3333 185.952 12.2667 188.406 9.6C190.859 6.88 193.739 4.74666 197.046 3.2C200.406 1.6 204.032 0.799997 207.926 0.799997C211.979 0.799997 215.659 1.62666 218.966 3.28C222.326 4.93333 225.179 7.14666 227.526 9.92C229.926 12.6933 231.766 15.7867 233.046 19.2C234.379 22.6133 235.046 26.1067 235.046 29.68C235.046 33.4667 234.352 37.0933 232.966 40.56C231.632 43.9733 229.739 47.04 227.286 49.76C224.832 52.4267 221.926 54.5333 218.566 56.08C215.259 57.6267 211.659 58.4 207.766 58.4ZM189.686 29.6C189.686 32.2667 190.112 34.8533 190.966 37.36C191.819 39.8667 193.019 42.1067 194.566 44.08C196.166 46 198.086 47.52 200.326 48.64C202.566 49.76 205.072 50.32 207.846 50.32C210.726 50.32 213.286 49.7333 215.526 48.56C217.766 47.3867 219.632 45.8133 221.126 43.84C222.672 41.8133 223.846 39.5733 224.646 37.12C225.446 34.6133 225.846 32.1067 225.846 29.6C225.846 26.9333 225.419 24.3733 224.566 21.92C223.766 19.4133 222.566 17.2 220.966 15.28C219.366 13.3067 217.446 11.76 215.206 10.64C213.019 9.52 210.566 8.96 207.846 8.96C204.966 8.96 202.406 9.54666 200.166 10.72C197.926 11.8933 196.032 13.4667 194.486 15.44C192.939 17.4133 191.739 19.6267 190.886 22.08C190.086 24.5333 189.686 27.04 189.686 29.6ZM281.202 58V9.12H262.242L261.922 19.68C261.602 27.3067 260.989 33.6267 260.082 38.64C259.175 43.6 257.869 47.52 256.162 50.4C254.455 53.2267 252.322 55.2533 249.762 56.48C247.202 57.6533 244.135 58.24 240.562 58.24V50.4C242.535 50.4 244.269 49.9467 245.762 49.04C247.255 48.08 248.509 46.4 249.522 44C250.589 41.6 251.415 38.24 252.002 33.92C252.642 29.5467 253.069 23.9733 253.282 17.2L253.842 1.2H290.242V58H281.202ZM349.712 1.2V58H340.672V32.96H312.032V58H303.072V1.2H312.032V24.96H340.672V1.2H349.712ZM362.925 58V1.2H371.885V45.36L402.205 1.2H410.605V58H401.645V14.56L371.645 58H362.925ZM465.455 9.12H446.575V58H437.535V9.12H418.575V1.2H465.455V9.12ZM512.032 50.08V58H473.072V1.2H511.312V9.12H482.032V25.28H507.392V32.72H482.032V50.08H512.032ZM558.155 58V9.12H539.195L538.875 19.68C538.555 27.3067 537.942 33.6267 537.035 38.64C536.128 43.6 534.822 47.52 533.115 50.4C531.408 53.2267 529.275 55.2533 526.715 56.48C524.155 57.6533 521.088 58.24 517.515 58.24V50.4C519.488 50.4 521.222 49.9467 522.715 49.04C524.208 48.08 525.462 46.4 526.475 44C527.542 41.6 528.368 38.24 528.955 33.92C529.595 29.5467 530.022 23.9733 530.235 17.2L530.795 1.2H567.195V58H558.155ZM580.105 58V1.2H589.065V22.16H601.785C605.945 22.16 609.438 22.9067 612.265 24.4C615.092 25.84 617.252 27.8933 618.745 30.56C620.238 33.2267 620.985 36.3733 620.985 40C620.985 43.4133 620.265 46.5067 618.825 49.28C617.385 52 615.278 54.1333 612.505 55.68C609.732 57.2267 606.345 58 602.345 58H580.105ZM589.065 50.56H601.065C603.572 50.56 605.598 50.08 607.145 49.12C608.745 48.16 609.918 46.88 610.665 45.28C611.412 43.6267 611.785 41.8667 611.785 40C611.785 38.1867 611.438 36.48 610.745 34.88C610.105 33.28 608.985 32 607.385 31.04C605.785 30.08 603.652 29.6 600.985 29.6H589.065V50.56ZM676.509 1.2V58H667.469V32.96H638.829V58H629.869V1.2H638.829V24.96H667.469V1.2H676.509ZM689.322 58V1.2H698.282V22.16H711.002C715.162 22.16 718.655 22.9067 721.482 24.4C724.362 25.84 726.522 27.8933 727.962 30.56C729.455 33.2267 730.202 36.3733 730.202 40C730.202 43.4133 729.482 46.5067 728.042 49.28C726.602 52 724.495 54.1333 721.722 55.68C718.949 57.2267 715.562 58 711.562 58H689.322ZM698.282 50.56H710.282C712.789 50.56 714.842 50.08 716.442 49.12C718.042 48.16 719.189 46.88 719.882 45.28C720.629 43.6267 721.002 41.8667 721.002 40C721.002 38.1867 720.655 36.48 719.962 34.88C719.322 33.28 718.202 32 716.602 31.04C715.055 30.08 712.922 29.6 710.202 29.6H698.282V50.56ZM739.162 58V1.28H748.202V58H739.162ZM799.844 50.08V58H760.884V1.2H799.124V9.12H769.844V25.28H795.204V32.72H769.844V50.08H799.844Z" fill="#E6DFD7"/>
</svg>
