<svg width="371" height="68" viewBox="0 0 371 68" fill="none" xmlns="http://www.w3.org/2000/svg">
<path opacity="0.3" d="M16.1279 67.288V59.992H20.4479C22.0479 59.992 23.2319 59.608 23.9999 58.84C24.8319 58.008 25.6959 56.792 26.5919 55.192L29.0879 49.816L0.671875 -1.16H10.1759L33.0239 40.984L52.2239 -1.16H61.3439L33.2159 59.32C31.8079 62.2 30.3039 64.248 28.7039 65.464C27.1679 66.68 25.0239 67.288 22.2719 67.288H16.1279ZM64.1346 32.44C64.1346 28.28 64.8386 24.216 66.2466 20.248C67.7186 16.216 69.8306 12.568 72.5826 9.304C75.3986 5.976 78.8226 3.352 82.8546 1.432C86.8866 -0.552004 91.4626 -1.544 96.5826 -1.544C102.663 -1.544 107.879 -0.136003 112.231 2.68C116.583 5.432 119.815 8.984 121.927 13.336L115.111 17.752C113.767 14.872 112.039 12.6 109.927 10.936C107.879 9.208 105.639 7.992 103.207 7.288C100.839 6.584 98.5026 6.232 96.1986 6.232C92.4226 6.232 89.0626 7 86.1186 8.536C83.2386 10.072 80.8066 12.12 78.8226 14.68C76.8386 17.24 75.3346 20.12 74.3106 23.32C73.3506 26.456 72.8706 29.624 72.8706 32.824C72.8706 36.344 73.4466 39.736 74.5986 43C75.8146 46.264 77.4786 49.144 79.5906 51.64C81.7026 54.136 84.1986 56.12 87.0786 57.592C89.9586 59.064 93.0946 59.8 96.4866 59.8C98.8546 59.8 101.287 59.384 103.783 58.552C106.279 57.72 108.615 56.44 110.791 54.712C112.967 52.92 114.695 50.616 115.975 47.8L123.175 51.736C121.767 55.128 119.591 58.008 116.647 60.376C113.703 62.744 110.407 64.536 106.759 65.752C103.175 66.968 99.6226 67.576 96.1026 67.576C91.4306 67.576 87.1426 66.584 83.2386 64.6C79.3346 62.552 75.9426 59.864 73.0626 56.536C70.2466 53.144 68.0386 49.368 66.4386 45.208C64.9026 40.984 64.1346 36.728 64.1346 32.44ZM179.108 67V6.51999H153.668L153.284 20.056C152.964 29.336 152.26 37.048 151.172 43.192C150.148 49.272 148.644 54.072 146.66 57.592C144.74 61.048 142.34 63.512 139.46 64.984C136.58 66.456 133.156 67.192 129.188 67.192V59.608C131.62 59.608 133.764 59 135.62 57.784C137.476 56.568 139.044 54.456 140.324 51.448C141.668 48.376 142.724 44.12 143.492 38.68C144.26 33.24 144.772 26.296 145.028 17.848L145.604 -1.16H187.748V67H179.108ZM211.409 67.288V59.992H215.729C217.329 59.992 218.513 59.608 219.281 58.84C220.113 58.008 220.977 56.792 221.873 55.192L224.369 49.816L195.953 -1.16H205.457L228.305 40.984L247.505 -1.16H256.625L228.497 59.32C227.089 62.2 225.585 64.248 223.985 65.464C222.449 66.68 220.305 67.288 217.553 67.288H211.409ZM263.832 67V-1.16H303.48V6.51999H272.472V67H263.832ZM314.562 67V-1.16H323.202V55L362.658 -1.16H370.722V67H362.082V11.896L323.106 67H314.562Z" fill="#8C9DA5"/>
</svg>
