<svg width="749" height="85" viewBox="0 0 749 85" fill="none" xmlns="http://www.w3.org/2000/svg">
<path opacity="0.2" d="M35.5106 -1.2H44.6306L79.4306 84H67.9106L57.8306 59.04H22.0706L12.1106 84H0.590625L35.5106 -1.2ZM55.4306 50.64L40.0706 11.28L24.2306 50.64H55.4306ZM119.39 84.72C114.35 84.72 109.59 83.92 105.11 82.32C100.71 80.72 96.7497 78.44 93.2297 75.48C89.7897 72.52 86.9897 69 84.8297 64.92L93.9497 60C95.7097 63.28 97.9097 66.04 100.55 68.28C103.19 70.52 106.11 72.2 109.31 73.32C112.59 74.44 115.91 75 119.27 75C123.67 75 127.71 74.12 131.39 72.36C135.15 70.52 138.39 68.04 141.11 64.92C143.83 61.8 145.87 58.24 147.23 54.24C148.67 50.16 149.31 45.92 149.15 41.52L153.95 44.88H111.47V36H153.71L149.15 39.12C149.07 35.28 148.35 31.52 146.99 27.84C145.63 24.08 143.67 20.72 141.11 17.76C138.63 14.8 135.55 12.44 131.87 10.68C128.27 8.92 124.11 8.04 119.39 8.04C116.11 8.04 112.91 8.56 109.79 9.6C106.75 10.64 103.95 12.24 101.39 14.4C98.9097 16.48 96.7897 19.2 95.0297 22.56L86.2697 16.92C89.3897 11.48 93.6297 7.04 98.9897 3.6C104.43 0.0799956 111.19 -1.68001 119.27 -1.68001C125.83 -1.68001 131.67 -0.440005 136.79 2.04C141.91 4.43999 146.23 7.67999 149.75 11.76C153.27 15.84 155.95 20.44 157.79 25.56C159.63 30.6 160.55 35.8 160.55 41.16C160.55 46.76 159.55 52.16 157.55 57.36C155.63 62.56 152.83 67.24 149.15 71.4C145.55 75.48 141.23 78.72 136.19 81.12C131.15 83.52 125.55 84.72 119.39 84.72ZM175.528 84V-1.2H211.048C214.808 -1.2 218.248 -0.400005 221.368 1.19999C224.488 2.72 227.208 4.8 229.528 7.44C231.848 10 233.648 12.92 234.928 16.2C236.208 19.4 236.848 22.68 236.848 26.04C236.848 30.68 235.808 35.12 233.728 39.36C231.648 43.52 228.728 46.92 224.968 49.56C221.208 52.12 216.808 53.4 211.768 53.4H186.328V84H175.528ZM186.328 43.8H211.168C214.128 43.8 216.688 43 218.848 41.4C221.088 39.8 222.808 37.64 224.008 34.92C225.288 32.2 225.928 29.24 225.928 26.04C225.928 22.68 225.208 19.68 223.768 17.04C222.328 14.32 220.448 12.2 218.128 10.68C215.808 9.16 213.248 8.39999 210.448 8.39999H186.328V43.8ZM284.854 84.6C278.854 84.6 273.414 83.4 268.534 81C263.654 78.6 259.414 75.36 255.814 71.28C252.294 67.12 249.574 62.48 247.654 57.36C245.734 52.16 244.774 46.84 244.774 41.4C244.774 35.72 245.774 30.32 247.774 25.2C249.854 20 252.694 15.4 256.294 11.4C259.974 7.32 264.254 4.12 269.134 1.79999C274.014 -0.600005 279.334 -1.8 285.094 -1.8C291.094 -1.8 296.534 -0.560003 301.414 1.92C306.294 4.39999 310.494 7.72 314.014 11.88C317.534 16.04 320.254 20.68 322.174 25.8C324.094 30.92 325.054 36.16 325.054 41.52C325.054 47.2 324.054 52.64 322.054 57.84C320.054 62.96 317.214 67.56 313.534 71.64C309.934 75.64 305.694 78.8 300.814 81.12C295.934 83.44 290.614 84.6 284.854 84.6ZM255.694 41.4C255.694 45.72 256.374 49.92 257.734 54C259.174 58 261.174 61.56 263.734 64.68C266.294 67.8 269.374 70.28 272.974 72.12C276.574 73.96 280.574 74.88 284.974 74.88C289.534 74.88 293.614 73.92 297.214 72C300.814 70.08 303.854 67.52 306.334 64.32C308.894 61.12 310.814 57.52 312.094 53.52C313.454 49.52 314.134 45.48 314.134 41.4C314.134 37.08 313.414 32.92 311.974 28.92C310.614 24.92 308.614 21.36 305.974 18.24C303.414 15.04 300.334 12.56 296.734 10.8C293.214 8.96 289.294 8.04 284.974 8.04C280.414 8.04 276.334 9 272.734 10.92C269.134 12.76 266.054 15.28 263.494 18.48C261.014 21.68 259.094 25.28 257.734 29.28C256.374 33.2 255.694 37.24 255.694 41.4ZM340.059 84V-1.2H405.819V84H395.019V8.39999H350.859V84H340.059ZM460.752 84.6C454.752 84.6 449.312 83.4 444.432 81C439.552 78.6 435.312 75.36 431.712 71.28C428.192 67.12 425.472 62.48 423.552 57.36C421.632 52.16 420.672 46.84 420.672 41.4C420.672 35.72 421.672 30.32 423.672 25.2C425.752 20 428.592 15.4 432.192 11.4C435.872 7.32 440.152 4.12 445.032 1.79999C449.912 -0.600005 455.232 -1.8 460.992 -1.8C466.992 -1.8 472.432 -0.560003 477.312 1.92C482.192 4.39999 486.392 7.72 489.912 11.88C493.432 16.04 496.152 20.68 498.072 25.8C499.992 30.92 500.952 36.16 500.952 41.52C500.952 47.2 499.952 52.64 497.952 57.84C495.952 62.96 493.112 67.56 489.432 71.64C485.832 75.64 481.592 78.8 476.712 81.12C471.832 83.44 466.512 84.6 460.752 84.6ZM431.592 41.4C431.592 45.72 432.272 49.92 433.632 54C435.072 58 437.072 61.56 439.632 64.68C442.192 67.8 445.272 70.28 448.872 72.12C452.472 73.96 456.472 74.88 460.872 74.88C465.432 74.88 469.512 73.92 473.112 72C476.712 70.08 479.752 67.52 482.232 64.32C484.792 61.12 486.712 57.52 487.992 53.52C489.352 49.52 490.032 45.48 490.032 41.4C490.032 37.08 489.312 32.92 487.872 28.92C486.512 24.92 484.512 21.36 481.872 18.24C479.312 15.04 476.232 12.56 472.632 10.8C469.112 8.96 465.192 8.04 460.872 8.04C456.312 8.04 452.232 9 448.632 10.92C445.032 12.76 441.952 15.28 439.392 18.48C436.912 21.68 434.992 25.28 433.632 29.28C432.272 33.2 431.592 37.24 431.592 41.4ZM515.958 84V-1.2H551.478C555.238 -1.2 558.678 -0.400005 561.798 1.19999C564.918 2.72 567.638 4.8 569.958 7.44C572.278 10 574.078 12.92 575.358 16.2C576.638 19.4 577.278 22.68 577.278 26.04C577.278 30.68 576.238 35.12 574.158 39.36C572.078 43.52 569.158 46.92 565.398 49.56C561.638 52.12 557.238 53.4 552.198 53.4H526.758V84H515.958ZM526.758 43.8H551.598C554.558 43.8 557.118 43 559.278 41.4C561.518 39.8 563.238 37.64 564.438 34.92C565.718 32.2 566.358 29.24 566.358 26.04C566.358 22.68 565.638 19.68 564.198 17.04C562.758 14.32 560.878 12.2 558.558 10.68C556.238 9.16 553.678 8.39999 550.878 8.39999H526.758V43.8ZM652.163 8.39999H622.763V84H611.963V8.39999H582.563V-1.2H652.163V8.39999ZM664.434 84V-1.2H675.234V31.08H695.634C701.874 31.08 707.074 32.2 711.234 34.44C715.394 36.6 718.514 39.68 720.594 43.68C722.754 47.6 723.834 52.2 723.834 57.48C723.834 62.44 722.794 66.96 720.714 71.04C718.634 75.04 715.554 78.2 711.474 80.52C707.394 82.84 702.354 84 696.354 84H664.434ZM675.234 75H694.914C699.154 75 702.594 74.2 705.234 72.6C707.874 70.92 709.794 68.76 710.994 66.12C712.194 63.4 712.794 60.52 712.794 57.48C712.794 54.44 712.234 51.6 711.114 48.96C710.074 46.32 708.234 44.2 705.594 42.6C702.954 40.92 699.354 40.08 694.794 40.08H675.234V75ZM737.994 84V-1.08001H748.794V84H737.994Z" fill="#8C9DA5"/>
</svg>
