<svg width="185" height="43" viewBox="0 0 185 43" fill="none" xmlns="http://www.w3.org/2000/svg">
<path opacity="0.6" d="M0.553906 37L6.55391 8.6H10.1539L7.55391 20.96H11.1539L23.0339 8.6H27.2739L13.9539 22.16L22.1139 37H18.3139L11.3539 24.08H6.87391L4.15391 37H0.553906ZM40.3427 8.6H43.4227L48.3427 37H44.5027L43.1427 28.68H32.0227L27.1827 37H23.3427L40.3427 8.6ZM42.9827 25.88L41.0227 12.76L33.3027 25.88H42.9827ZM49.6364 37L63.0364 22.32L55.2764 8.6H58.8764L65.8364 20.96H69.7964L72.3964 8.6H75.9964L73.3964 20.96H76.9964L88.8764 8.6H93.1164L79.7964 22.16L87.9564 37H84.3164L77.3564 24.08H72.7164L69.9964 37H66.3964L69.1164 24.08H65.5964L53.7164 37H49.6364ZM89.562 42.44L91.362 33.8H92.802C93.842 33.7733 94.8154 33.16 95.722 31.96C96.6287 30.76 97.5087 28.84 98.362 26.2C99.242 23.56 100.135 20.0933 101.042 15.8L102.562 8.6H120.482L115.162 33.8H118.682L116.882 42.44H113.682L114.802 37H93.882L92.762 42.44H89.562ZM97.642 33.8H111.562L116.242 11.8H105.282L104.122 17.36C103.429 20.6933 102.735 23.4667 102.042 25.68C101.349 27.8933 100.642 29.6533 99.922 30.96C99.202 32.24 98.442 33.1867 97.642 33.8ZM122.741 37L128.741 8.6H132.341L130.061 19.36H134.981C137.061 19.36 138.728 19.7333 139.981 20.48C141.261 21.2 142.155 22.2267 142.661 23.56C143.168 24.8667 143.275 26.4 142.981 28.16C142.715 29.8133 142.115 31.32 141.181 32.68C140.275 34.0133 139.075 35.0667 137.581 35.84C136.115 36.6133 134.381 37 132.381 37H122.741ZM127.021 33.84H132.381C133.795 33.84 134.981 33.5733 135.941 33.04C136.901 32.5067 137.661 31.8133 138.221 30.96C138.781 30.08 139.141 29.1467 139.301 28.16C139.488 27.1733 139.461 26.2533 139.221 25.4C139.008 24.5467 138.501 23.8533 137.701 23.32C136.928 22.7867 135.781 22.52 134.261 22.52H129.381L127.021 33.84ZM151.661 8.64H155.261L149.221 37H145.621L151.661 8.64ZM155.945 37L161.945 8.6H165.545L160.625 31.92L181.025 8.6H184.385L178.385 37H174.785L179.745 13.96L159.505 37H155.945ZM173.345 4.96C171.265 4.96 169.718 4.53333 168.705 3.68C167.718 2.8 167.318 1.69333 167.505 0.359997H170.345C170.238 1.02666 170.465 1.58667 171.025 2.04C171.585 2.49333 172.398 2.72 173.465 2.72C174.771 2.72 175.798 2.50666 176.545 2.08C177.318 1.65333 177.758 1.08 177.865 0.359997H180.625C180.491 1.24 180.118 2.02667 179.505 2.72C178.891 3.41333 178.065 3.96 177.025 4.36C175.985 4.76 174.758 4.96 173.345 4.96Z" fill="#8C9DA5"/>
</svg>
