<svg width="663" height="82" viewBox="0 0 663 82" fill="none" xmlns="http://www.w3.org/2000/svg">
<path opacity="0.7" d="M0.4315 33.44C0.4315 29.28 1.1355 25.216 2.5435 21.248C4.0155 17.216 6.1275 13.568 8.8795 10.304C11.6955 6.976 15.1195 4.352 19.1515 2.432C23.1835 0.447996 27.7595 -0.544004 32.8795 -0.544004C38.9595 -0.544004 44.1755 0.863997 48.5275 3.68C52.8795 6.432 56.1115 9.984 58.2235 14.336L51.4075 18.752C50.0635 15.872 48.3355 13.6 46.2235 11.936C44.1755 10.208 41.9355 8.992 39.5035 8.288C37.1355 7.584 34.7995 7.232 32.4955 7.232C28.7195 7.232 25.3595 8 22.4155 9.536C19.5355 11.072 17.1035 13.12 15.1195 15.68C13.1355 18.24 11.6315 21.12 10.6075 24.32C9.6475 27.456 9.1675 30.624 9.1675 33.824C9.1675 37.344 9.7435 40.736 10.8955 44C12.1115 47.264 13.7755 50.144 15.8875 52.64C17.9995 55.136 20.4955 57.12 23.3755 58.592C26.2555 60.064 29.3915 60.8 32.7835 60.8C35.1515 60.8 37.5835 60.384 40.0795 59.552C42.5755 58.72 44.9115 57.44 47.0875 55.712C49.2635 53.92 50.9915 51.616 52.2715 48.8L59.4715 52.736C58.0635 56.128 55.8875 59.008 52.9435 61.376C49.9995 63.744 46.7035 65.536 43.0555 66.752C39.4715 67.968 35.9195 68.576 32.3995 68.576C27.7275 68.576 23.4395 67.584 19.5355 65.6C15.6315 63.552 12.2395 60.864 9.3595 57.536C6.5435 54.144 4.3355 50.368 2.7355 46.208C1.1995 41.984 0.4315 37.728 0.4315 33.44ZM97.183 68.48C92.383 68.48 88.031 67.52 84.127 65.6C80.223 63.68 76.831 61.088 73.951 57.824C71.135 54.496 68.959 50.784 67.423 46.688C65.887 42.528 65.119 38.272 65.119 33.92C65.119 29.376 65.919 25.056 67.519 20.96C69.183 16.8 71.455 13.12 74.335 9.92C77.279 6.656 80.703 4.096 84.607 2.23999C88.511 0.319996 92.767 -0.640003 97.375 -0.640003C102.175 -0.640003 106.527 0.351997 110.431 2.336C114.335 4.32 117.695 6.976 120.511 10.304C123.327 13.632 125.503 17.344 127.039 21.44C128.575 25.536 129.343 29.728 129.343 34.016C129.343 38.56 128.543 42.912 126.943 47.072C125.343 51.168 123.071 54.848 120.127 58.112C117.247 61.312 113.855 63.84 109.951 65.696C106.047 67.552 101.791 68.48 97.183 68.48ZM73.855 33.92C73.855 37.376 74.399 40.736 75.487 44C76.639 47.2 78.239 50.048 80.287 52.544C82.335 55.04 84.799 57.024 87.679 58.496C90.559 59.968 93.759 60.704 97.279 60.704C100.927 60.704 104.191 59.936 107.071 58.4C109.951 56.864 112.383 54.816 114.367 52.256C116.415 49.696 117.951 46.816 118.975 43.616C120.063 40.416 120.607 37.184 120.607 33.92C120.607 30.464 120.031 27.136 118.879 23.936C117.791 20.736 116.191 17.888 114.079 15.392C112.031 12.832 109.567 10.848 106.687 9.44C103.871 7.968 100.735 7.232 97.279 7.232C93.631 7.232 90.367 8 87.487 9.536C84.607 11.008 82.143 13.024 80.095 15.584C78.111 18.144 76.575 21.024 75.487 24.224C74.399 27.36 73.855 30.592 73.855 33.92ZM188.343 7.51999H164.823V68H156.183V7.51999H132.663V-0.160004H188.343V7.51999ZM198.16 68V-0.160004H226.576C229.584 -0.160004 232.336 0.479996 234.832 1.75999C237.328 2.976 239.504 4.64 241.36 6.752C243.216 8.8 244.656 11.136 245.68 13.76C246.704 16.32 247.216 18.944 247.216 21.632C247.216 25.344 246.384 28.896 244.72 32.288C243.056 35.616 240.72 38.336 237.712 40.448C234.704 42.496 231.184 43.52 227.152 43.52H206.8V68H198.16ZM206.8 35.84H226.672C229.04 35.84 231.088 35.2 232.816 33.92C234.608 32.64 235.984 30.912 236.944 28.736C237.968 26.56 238.48 24.192 238.48 21.632C238.48 18.944 237.904 16.544 236.752 14.432C235.6 12.256 234.096 10.56 232.24 9.344C230.384 8.128 228.336 7.51999 226.096 7.51999H206.8V35.84ZM265.269 68.288V60.992H269.589C271.189 60.992 272.373 60.608 273.141 59.84C273.973 59.008 274.837 57.792 275.733 56.192L278.229 50.816L249.812 -0.160004H259.317L282.165 41.984L301.365 -0.160004H310.485L282.357 60.32C280.949 63.2 279.445 65.248 277.845 66.464C276.309 67.68 274.165 68.288 271.413 68.288H265.269ZM312.891 81.056V60.32H315.963C317.755 60.32 319.323 59.616 320.667 58.208C322.011 56.736 323.163 54.432 324.123 51.296C325.083 48.096 325.851 43.84 326.427 38.528C327.003 33.216 327.419 26.656 327.675 18.848L328.155 -0.160004H370.395V60.32H378.843V81.056H371.163V68H320.571V81.056H312.891ZM327.483 60.32H361.755V7.51999H336.123L335.835 19.904C335.643 27.968 335.227 34.72 334.587 40.16C333.947 45.6 333.051 49.952 331.899 53.216C330.747 56.48 329.275 58.848 327.483 60.32ZM445.164 -0.160004V68H436.524V36.992H398.988V68H390.348V-0.160004H398.988V29.312H436.524V-0.160004H445.164ZM461.984 68V-0.160004H470.624V56L510.08 -0.160004H518.144V68H509.504V12.896L470.528 68H461.984ZM534.91 68V-0.160004H543.55V29.312H552.67L575.134 -0.160004H585.118L559.774 32.864L586.846 68H576.286L552.862 37.184H543.55V68H534.91ZM618.582 45.632V37.952H662.166V45.632H618.582Z" fill="#F4F3EF"/>
</svg>
