<svg width="416" height="43" viewBox="0 0 416 43" fill="none" xmlns="http://www.w3.org/2000/svg">
<path d="M15.67 24.1904L23.2559 12.053L15.67 -9.91821e-05L21.9073 -9.83642e-05L29.9989 12.053L21.9073 24.1904L15.67 24.1904Z" fill="#F4F3EF"/>
<path d="M15.3289 11.9692L7.74298 24.1066L15.3289 36.1598L9.09158 36.1598L0.999976 24.1066L9.09158 11.9692L15.3289 11.9692Z" stroke="#F4F3EF" stroke-width="2" stroke-linejoin="round"/>
<path d="M69.3709 38V19.784L61.8469 33.608H59.4709L51.9109 19.784V38H47.8789V12.44H52.1989L60.6589 28.064L69.1189 12.44H73.4389V38H69.3709ZM96.7351 34.436V38H79.2031V12.44H96.4111V16.004H83.2351V23.276H94.6471V26.624H83.2351V34.436H96.7351ZM118.427 34.436V38H100.895V12.44H118.103V16.004H104.927V23.276H116.339V26.624H104.927V34.436H118.427ZM141.342 16.004H132.846V38H128.778V16.004H120.246V12.44H141.342V16.004ZM152.574 38V12.44H163.302C164.454 12.44 165.51 12.68 166.47 13.16C167.43 13.64 168.27 14.276 168.99 15.068C169.71 15.86 170.262 16.748 170.646 17.732C171.03 18.716 171.222 19.724 171.222 20.756C171.222 22.172 170.898 23.528 170.25 24.824C169.626 26.096 168.726 27.128 167.55 27.92C166.398 28.712 165.054 29.108 163.518 29.108H156.606V38H152.574ZM156.606 25.544H163.266C164.034 25.544 164.706 25.34 165.282 24.932C165.858 24.5 166.302 23.924 166.614 23.204C166.95 22.484 167.118 21.668 167.118 20.756C167.118 19.82 166.926 18.992 166.542 18.272C166.158 17.552 165.654 17 165.03 16.616C164.43 16.208 163.77 16.004 163.05 16.004H156.606V25.544ZM175.004 38V12.44H179.036V34.436H192.752V38H175.004ZM205.91 38.18C203.87 38.18 202.142 37.832 200.726 37.136C199.334 36.44 198.206 35.492 197.342 34.292C196.502 33.092 195.878 31.724 195.47 30.188C195.086 28.652 194.894 27.056 194.894 25.4V12.44H198.926V25.4C198.926 26.576 199.046 27.716 199.286 28.82C199.526 29.9 199.91 30.872 200.438 31.736C200.966 32.6 201.674 33.284 202.562 33.788C203.474 34.292 204.59 34.544 205.91 34.544C207.254 34.544 208.37 34.292 209.258 33.788C210.17 33.26 210.878 32.564 211.382 31.7C211.91 30.812 212.294 29.828 212.534 28.748C212.774 27.668 212.894 26.552 212.894 25.4V12.44H216.962V25.4C216.962 27.152 216.746 28.808 216.314 30.368C215.906 31.904 215.258 33.26 214.37 34.436C213.506 35.588 212.378 36.5 210.986 37.172C209.594 37.844 207.902 38.18 205.91 38.18ZM237.444 18.452C237.204 18.188 236.856 17.912 236.4 17.624C235.944 17.312 235.404 17.024 234.78 16.76C234.156 16.496 233.484 16.28 232.764 16.112C232.044 15.944 231.3 15.86 230.532 15.86C228.852 15.86 227.604 16.172 226.788 16.796C225.972 17.42 225.564 18.284 225.564 19.388C225.564 20.204 225.792 20.852 226.248 21.332C226.704 21.788 227.4 22.172 228.336 22.484C229.272 22.796 230.448 23.132 231.864 23.492C233.592 23.9 235.092 24.392 236.364 24.968C237.636 25.52 238.608 26.264 239.28 27.2C239.952 28.136 240.288 29.372 240.288 30.908C240.288 32.204 240.048 33.32 239.568 34.256C239.088 35.192 238.416 35.96 237.552 36.56C236.688 37.136 235.692 37.568 234.564 37.856C233.436 38.12 232.224 38.252 230.928 38.252C229.656 38.252 228.384 38.12 227.112 37.856C225.864 37.592 224.664 37.208 223.512 36.704C222.384 36.176 221.34 35.54 220.38 34.796L222.216 31.34C222.528 31.652 222.972 32 223.548 32.384C224.148 32.744 224.832 33.092 225.6 33.428C226.392 33.764 227.244 34.052 228.156 34.292C229.092 34.508 230.04 34.616 231 34.616C232.608 34.616 233.832 34.34 234.672 33.788C235.536 33.212 235.968 32.396 235.968 31.34C235.968 30.476 235.692 29.792 235.14 29.288C234.588 28.76 233.784 28.316 232.728 27.956C231.672 27.596 230.412 27.236 228.948 26.876C227.268 26.42 225.864 25.928 224.736 25.4C223.608 24.848 222.756 24.152 222.18 23.312C221.628 22.448 221.352 21.356 221.352 20.036C221.352 18.356 221.76 16.94 222.576 15.788C223.392 14.612 224.496 13.736 225.888 13.16C227.304 12.56 228.888 12.26 230.64 12.26C231.792 12.26 232.884 12.392 233.916 12.656C234.948 12.896 235.908 13.232 236.796 13.664C237.708 14.096 238.536 14.588 239.28 15.14L237.444 18.452ZM263.667 38.18C261.987 38.18 260.415 37.832 258.951 37.136C257.487 36.44 256.203 35.48 255.099 34.256C254.019 33.032 253.167 31.64 252.543 30.08C251.943 28.52 251.643 26.864 251.643 25.112C251.643 23.36 251.943 21.716 252.543 20.18C253.167 18.644 254.019 17.276 255.099 16.076C256.203 14.876 257.487 13.94 258.951 13.268C260.439 12.596 262.059 12.26 263.811 12.26C266.235 12.26 268.275 12.776 269.931 13.808C271.611 14.816 272.871 16.16 273.711 17.84L270.615 20.072C269.943 18.68 268.983 17.636 267.735 16.94C266.511 16.244 265.167 15.896 263.703 15.896C262.503 15.896 261.411 16.148 260.427 16.652C259.443 17.156 258.591 17.852 257.871 18.74C257.175 19.604 256.647 20.6 256.287 21.728C255.927 22.832 255.747 23.996 255.747 25.22C255.747 26.516 255.951 27.728 256.359 28.856C256.767 29.984 257.343 30.98 258.087 31.844C258.831 32.684 259.707 33.344 260.715 33.824C261.723 34.304 262.815 34.544 263.991 34.544C265.383 34.544 266.703 34.196 267.951 33.5C269.223 32.78 270.411 31.712 271.515 30.296V34.4C269.283 36.92 266.667 38.18 263.667 38.18ZM271.119 28.064H265.755V25.076H274.503V38H271.119V28.064ZM279.102 38V12.44H290.226C291.378 12.44 292.434 12.68 293.394 13.16C294.354 13.64 295.182 14.276 295.878 15.068C296.598 15.86 297.15 16.748 297.534 17.732C297.942 18.716 298.146 19.724 298.146 20.756C298.146 21.884 297.942 22.964 297.534 23.996C297.126 25.028 296.538 25.916 295.77 26.66C295.026 27.404 294.15 27.944 293.142 28.28L299.154 38H294.618L289.074 29.108H283.134V38H279.102ZM283.134 25.544H290.19C290.934 25.544 291.594 25.328 292.17 24.896C292.746 24.464 293.202 23.888 293.538 23.168C293.874 22.424 294.042 21.62 294.042 20.756C294.042 19.868 293.85 19.076 293.466 18.38C293.082 17.66 292.578 17.084 291.954 16.652C291.354 16.22 290.694 16.004 289.974 16.004H283.134V25.544ZM320.434 34.436V38H302.902V12.44H320.11V16.004H306.934V23.276H318.346V26.624H306.934V34.436H320.434ZM342.126 34.436V38H324.594V12.44H341.802V16.004H328.626V23.276H340.038V26.624H328.626V34.436H342.126ZM365.041 16.004H356.545V38H352.477V16.004H343.945V12.44H365.041V16.004Z" fill="#F4F3EF"/>
</svg>
