<svg width="427" height="50" viewBox="0 0 427 50" fill="none" xmlns="http://www.w3.org/2000/svg">
<path d="M20.4751 32.1118L30.545 15.9999L20.4751 -0.000118256L28.7548 -0.00011717L39.4961 15.9999L28.7548 32.1118L20.4751 32.1118Z" fill="#2C3135"/>
<path d="M20.021 15.8882L9.95105 32.0001L20.021 48.0001L11.7413 48.0001L0.999992 32.0001L11.7413 15.8882L20.021 15.8882Z" stroke="#2C3135" stroke-width="2" stroke-linejoin="round"/>
<path d="M81.8991 41V21.266L73.7481 36.242H71.1741L62.9841 21.266V41H58.6161V13.31H63.2961L72.4611 30.236L81.6261 13.31H86.3061V41H81.8991ZM111.544 37.139V41H92.5507V13.31H111.193V17.171H96.9187V25.049H109.282V28.676H96.9187V37.139H111.544ZM135.043 37.139V41H116.05V13.31H134.692V17.171H120.418V25.049H132.781V28.676H120.418V37.139H135.043ZM159.868 17.171H150.664V41H146.257V17.171H137.014V13.31H159.868V17.171ZM172.036 41V13.31H183.658C184.906 13.31 186.05 13.57 187.09 14.09C188.13 14.61 189.04 15.299 189.82 16.157C190.6 17.015 191.198 17.977 191.614 19.043C192.03 20.109 192.238 21.201 192.238 22.319C192.238 23.853 191.887 25.322 191.185 26.726C190.509 28.104 189.534 29.222 188.26 30.08C187.012 30.938 185.556 31.367 183.892 31.367H176.404V41H172.036ZM176.404 27.506H183.619C184.451 27.506 185.179 27.285 185.803 26.843C186.427 26.375 186.908 25.751 187.246 24.971C187.61 24.191 187.792 23.307 187.792 22.319C187.792 21.305 187.584 20.408 187.168 19.628C186.752 18.848 186.206 18.25 185.53 17.834C184.88 17.392 184.165 17.171 183.385 17.171H176.404V27.506ZM196.335 41V13.31H200.703V37.139H215.562V41H196.335ZM229.816 41.195C227.606 41.195 225.734 40.818 224.2 40.064C222.692 39.31 221.47 38.283 220.534 36.983C219.624 35.683 218.948 34.201 218.506 32.537C218.09 30.873 217.882 29.144 217.882 27.35V13.31H222.25V27.35C222.25 28.624 222.38 29.859 222.64 31.055C222.9 32.225 223.316 33.278 223.888 34.214C224.46 35.15 225.227 35.891 226.189 36.437C227.177 36.983 228.386 37.256 229.816 37.256C231.272 37.256 232.481 36.983 233.443 36.437C234.431 35.865 235.198 35.111 235.744 34.175C236.316 33.213 236.732 32.147 236.992 30.977C237.252 29.807 237.382 28.598 237.382 27.35V13.31H241.789V27.35C241.789 29.248 241.555 31.042 241.087 32.732C240.645 34.396 239.943 35.865 238.981 37.139C238.045 38.387 236.823 39.375 235.315 40.103C233.807 40.831 231.974 41.195 229.816 41.195ZM263.979 19.823C263.719 19.537 263.342 19.238 262.848 18.926C262.354 18.588 261.769 18.276 261.093 17.99C260.417 17.704 259.689 17.47 258.909 17.288C258.129 17.106 257.323 17.015 256.491 17.015C254.671 17.015 253.319 17.353 252.435 18.029C251.551 18.705 251.109 19.641 251.109 20.837C251.109 21.721 251.356 22.423 251.85 22.943C252.344 23.437 253.098 23.853 254.112 24.191C255.126 24.529 256.4 24.893 257.934 25.283C259.806 25.725 261.431 26.258 262.809 26.882C264.187 27.48 265.24 28.286 265.968 29.3C266.696 30.314 267.06 31.653 267.06 33.317C267.06 34.721 266.8 35.93 266.28 36.944C265.76 37.958 265.032 38.79 264.096 39.44C263.16 40.064 262.081 40.532 260.859 40.844C259.637 41.13 258.324 41.273 256.92 41.273C255.542 41.273 254.164 41.13 252.786 40.844C251.434 40.558 250.134 40.142 248.886 39.596C247.664 39.024 246.533 38.335 245.493 37.529L247.482 33.785C247.82 34.123 248.301 34.5 248.925 34.916C249.575 35.306 250.316 35.683 251.148 36.047C252.006 36.411 252.929 36.723 253.917 36.983C254.931 37.217 255.958 37.334 256.998 37.334C258.74 37.334 260.066 37.035 260.976 36.437C261.912 35.813 262.38 34.929 262.38 33.785C262.38 32.849 262.081 32.108 261.483 31.562C260.885 30.99 260.014 30.509 258.87 30.119C257.726 29.729 256.361 29.339 254.775 28.949C252.955 28.455 251.434 27.922 250.212 27.35C248.99 26.752 248.067 25.998 247.443 25.088C246.845 24.152 246.546 22.969 246.546 21.539C246.546 19.719 246.988 18.185 247.872 16.937C248.756 15.663 249.952 14.714 251.46 14.09C252.994 13.44 254.71 13.115 256.608 13.115C257.856 13.115 259.039 13.258 260.157 13.544C261.275 13.804 262.315 14.168 263.277 14.636C264.265 15.104 265.162 15.637 265.968 16.235L263.979 19.823ZM292.386 41.195C290.566 41.195 288.863 40.818 287.277 40.064C285.691 39.31 284.3 38.27 283.104 36.944C281.934 35.618 281.011 34.11 280.335 32.42C279.685 30.73 279.36 28.936 279.36 27.038C279.36 25.14 279.685 23.359 280.335 21.695C281.011 20.031 281.934 18.549 283.104 17.249C284.3 15.949 285.691 14.935 287.277 14.207C288.889 13.479 290.644 13.115 292.542 13.115C295.168 13.115 297.378 13.674 299.172 14.792C300.992 15.884 302.357 17.34 303.267 19.16L299.913 21.578C299.185 20.07 298.145 18.939 296.793 18.185C295.467 17.431 294.011 17.054 292.425 17.054C291.125 17.054 289.942 17.327 288.876 17.873C287.81 18.419 286.887 19.173 286.107 20.135C285.353 21.071 284.781 22.15 284.391 23.372C284.001 24.568 283.806 25.829 283.806 27.155C283.806 28.559 284.027 29.872 284.469 31.094C284.911 32.316 285.535 33.395 286.341 34.331C287.147 35.241 288.096 35.956 289.188 36.476C290.28 36.996 291.463 37.256 292.737 37.256C294.245 37.256 295.675 36.879 297.027 36.125C298.405 35.345 299.692 34.188 300.888 32.654V37.1C298.47 39.83 295.636 41.195 292.386 41.195ZM300.459 30.236H294.648V26.999H304.125V41H300.459V30.236ZM309.107 41V13.31H321.158C322.406 13.31 323.55 13.57 324.59 14.09C325.63 14.61 326.527 15.299 327.281 16.157C328.061 17.015 328.659 17.977 329.075 19.043C329.517 20.109 329.738 21.201 329.738 22.319C329.738 23.541 329.517 24.711 329.075 25.829C328.633 26.947 327.996 27.909 327.164 28.715C326.358 29.521 325.409 30.106 324.317 30.47L330.83 41H325.916L319.91 31.367H313.475V41H309.107ZM313.475 27.506H321.119C321.925 27.506 322.64 27.272 323.264 26.804C323.888 26.336 324.382 25.712 324.746 24.932C325.11 24.126 325.292 23.255 325.292 22.319C325.292 21.357 325.084 20.499 324.668 19.745C324.252 18.965 323.706 18.341 323.03 17.873C322.38 17.405 321.665 17.171 320.885 17.171H313.475V27.506ZM353.884 37.139V41H334.891V13.31H353.533V17.171H339.259V25.049H351.622V28.676H339.259V37.139H353.884ZM377.384 37.139V41H358.391V13.31H377.033V17.171H362.759V25.049H375.122V28.676H362.759V37.139H377.384ZM402.209 17.171H393.005V41H388.598V17.171H379.355V13.31H402.209V17.171Z" fill="#2C3135"/>
</svg>
