<svg width="212" height="22" viewBox="0 0 212 22" fill="none" xmlns="http://www.w3.org/2000/svg">
<path d="M9.41113 13.8658L13.7593 6.90875L9.41113 -2.67029e-05L12.9863 -2.62341e-05L17.6244 6.90875L12.9863 13.8658L9.41113 13.8658Z" fill="#F4F3EF"/>
<path d="M9.21313 6.86206L4.86495 13.8192L9.21313 20.7279L5.63796 20.7279L0.999901 13.8192L5.63796 6.86206L9.21313 6.86206Z" stroke="#F4F3EF" stroke-linejoin="round"/>
<path d="M41.1643 21V10.88L36.9843 18.56H35.6643L31.4643 10.88V21H29.2243V6.8H31.6243L36.3243 15.48L41.0243 6.8H43.4243V21H41.1643ZM56.3666 19.02V21H46.6266V6.8H56.1866V8.78H48.8666V12.82H55.2066V14.68H48.8666V19.02H56.3666ZM68.4174 19.02V21H58.6774V6.8H68.2374V8.78H60.9174V12.82H67.2574V14.68H60.9174V19.02H68.4174ZM81.1482 8.78H76.4282V21H74.1682V8.78H69.4282V6.8H81.1482V8.78ZM87.3883 21V6.8H93.3483C93.9883 6.8 94.575 6.93333 95.1083 7.2C95.6417 7.46667 96.1083 7.82 96.5083 8.26C96.9083 8.7 97.215 9.19333 97.4283 9.74C97.6417 10.2867 97.7483 10.8467 97.7483 11.42C97.7483 12.2067 97.5683 12.96 97.2083 13.68C96.8617 14.3867 96.3617 14.96 95.7083 15.4C95.0683 15.84 94.3217 16.06 93.4683 16.06H89.6283V21H87.3883ZM89.6283 14.08H93.3283C93.755 14.08 94.1283 13.9667 94.4483 13.74C94.7683 13.5 95.015 13.18 95.1883 12.78C95.375 12.38 95.4683 11.9267 95.4683 11.42C95.4683 10.9 95.3617 10.44 95.1483 10.04C94.935 9.64 94.655 9.33333 94.3083 9.12C93.975 8.89333 93.6083 8.78 93.2083 8.78H89.6283V14.08ZM99.8493 21V6.8H102.089V19.02H109.709V21H99.8493ZM117.019 21.1C115.886 21.1 114.926 20.9067 114.139 20.52C113.366 20.1333 112.739 19.6067 112.259 18.94C111.793 18.2733 111.446 17.5133 111.219 16.66C111.006 15.8067 110.899 14.92 110.899 14V6.8H113.139V14C113.139 14.6533 113.206 15.2867 113.339 15.9C113.473 16.5 113.686 17.04 113.979 17.52C114.273 18 114.666 18.38 115.159 18.66C115.666 18.94 116.286 19.08 117.019 19.08C117.766 19.08 118.386 18.94 118.879 18.66C119.386 18.3667 119.779 17.98 120.059 17.5C120.353 17.0067 120.566 16.46 120.699 15.86C120.833 15.26 120.899 14.64 120.899 14V6.8H123.159V14C123.159 14.9733 123.039 15.8933 122.799 16.76C122.573 17.6133 122.213 18.3667 121.719 19.02C121.239 19.66 120.613 20.1667 119.839 20.54C119.066 20.9133 118.126 21.1 117.019 21.1ZM134.538 10.14C134.405 9.99333 134.212 9.84 133.958 9.68C133.705 9.50667 133.405 9.34667 133.058 9.2C132.712 9.05333 132.338 8.93333 131.938 8.84C131.538 8.74667 131.125 8.7 130.698 8.7C129.765 8.7 129.072 8.87333 128.618 9.22C128.165 9.56667 127.938 10.0467 127.938 10.66C127.938 11.1133 128.065 11.4733 128.318 11.74C128.572 11.9933 128.958 12.2067 129.478 12.38C129.998 12.5533 130.652 12.74 131.438 12.94C132.398 13.1667 133.232 13.44 133.938 13.76C134.645 14.0667 135.185 14.48 135.558 15C135.932 15.52 136.118 16.2067 136.118 17.06C136.118 17.78 135.985 18.4 135.718 18.92C135.452 19.44 135.078 19.8667 134.598 20.2C134.118 20.52 133.565 20.76 132.938 20.92C132.312 21.0667 131.638 21.14 130.918 21.14C130.212 21.14 129.505 21.0667 128.798 20.92C128.105 20.7733 127.438 20.56 126.798 20.28C126.172 19.9867 125.592 19.6333 125.058 19.22L126.078 17.3C126.252 17.4733 126.498 17.6667 126.818 17.88C127.152 18.08 127.532 18.2733 127.958 18.46C128.398 18.6467 128.872 18.8067 129.378 18.94C129.898 19.06 130.425 19.12 130.958 19.12C131.852 19.12 132.532 18.9667 132.998 18.66C133.478 18.34 133.718 17.8867 133.718 17.3C133.718 16.82 133.565 16.44 133.258 16.16C132.952 15.8667 132.505 15.62 131.918 15.42C131.332 15.22 130.632 15.02 129.818 14.82C128.885 14.5667 128.105 14.2933 127.478 14C126.852 13.6933 126.378 13.3067 126.058 12.84C125.752 12.36 125.598 11.7533 125.598 11.02C125.598 10.0867 125.825 9.3 126.278 8.66C126.732 8.00667 127.345 7.52 128.118 7.2C128.905 6.86667 129.785 6.7 130.758 6.7C131.398 6.7 132.005 6.77333 132.578 6.92C133.152 7.05333 133.685 7.24 134.178 7.48C134.685 7.72 135.145 7.99333 135.558 8.3L134.538 10.14ZM149.106 21.1C148.173 21.1 147.3 20.9067 146.486 20.52C145.673 20.1333 144.96 19.6 144.346 18.92C143.746 18.24 143.273 17.4667 142.926 16.6C142.593 15.7333 142.426 14.8133 142.426 13.84C142.426 12.8667 142.593 11.9533 142.926 11.1C143.273 10.2467 143.746 9.48667 144.346 8.82C144.96 8.15333 145.673 7.63333 146.486 7.26C147.313 6.88667 148.213 6.7 149.186 6.7C150.533 6.7 151.666 6.98667 152.586 7.56C153.52 8.12 154.22 8.86667 154.686 9.8L152.966 11.04C152.593 10.2667 152.06 9.68667 151.366 9.3C150.686 8.91333 149.94 8.72 149.126 8.72C148.46 8.72 147.853 8.86 147.306 9.14C146.76 9.42 146.286 9.80667 145.886 10.3C145.5 10.78 145.206 11.3333 145.006 11.96C144.806 12.5733 144.706 13.22 144.706 13.9C144.706 14.62 144.82 15.2933 145.046 15.92C145.273 16.5467 145.593 17.1 146.006 17.58C146.42 18.0467 146.906 18.4133 147.466 18.68C148.026 18.9467 148.633 19.08 149.286 19.08C150.06 19.08 150.793 18.8867 151.486 18.5C152.193 18.1 152.853 17.5067 153.466 16.72V19C152.226 20.4 150.773 21.1 149.106 21.1ZM153.246 15.48H150.266V13.82H155.126V21H153.246V15.48ZM157.681 21V6.8H163.861C164.501 6.8 165.088 6.93333 165.621 7.2C166.155 7.46667 166.615 7.82 167.001 8.26C167.401 8.7 167.708 9.19333 167.921 9.74C168.148 10.2867 168.261 10.8467 168.261 11.42C168.261 12.0467 168.148 12.6467 167.921 13.22C167.695 13.7933 167.368 14.2867 166.941 14.7C166.528 15.1133 166.041 15.4133 165.481 15.6L168.821 21H166.301L163.221 16.06H159.921V21H157.681ZM159.921 14.08H163.841C164.255 14.08 164.621 13.96 164.941 13.72C165.261 13.48 165.515 13.16 165.701 12.76C165.888 12.3467 165.981 11.9 165.981 11.42C165.981 10.9267 165.875 10.4867 165.661 10.1C165.448 9.7 165.168 9.38 164.821 9.14C164.488 8.9 164.121 8.78 163.721 8.78H159.921V14.08ZM180.644 19.02V21H170.904V6.8H180.464V8.78H173.144V12.82H179.484V14.68H173.144V19.02H180.644ZM192.695 19.02V21H182.955V6.8H192.515V8.78H185.195V12.82H191.535V14.68H185.195V19.02H192.695ZM205.426 8.78H200.706V21H198.446V8.78H193.706V6.8H205.426V8.78Z" fill="#F4F3EF"/>
</svg>
