<svg width="496" height="39" viewBox="0 0 496 39" fill="none" xmlns="http://www.w3.org/2000/svg">
<path opacity="0.7" d="M0.42875 35L7.62875 0.919998H33.8848L26.6848 35H22.3648L28.7968 4.76H11.1328L4.74875 35H0.42875ZM41.9424 0.919998H55.4784C57.1104 0.919998 58.5024 1.352 59.6544 2.216C60.8384 3.08 61.7344 4.2 62.3424 5.576C62.9504 6.952 63.2544 8.408 63.2544 9.944C63.2544 11.48 62.9344 13.016 62.2944 14.552C61.6544 16.056 60.7744 17.432 59.6544 18.68C58.5344 19.928 57.2384 20.92 55.7664 21.656C54.2944 22.392 52.7264 22.76 51.0624 22.76H41.6064L39.0144 35H34.6944L41.9424 0.919998ZM51.6384 18.92C52.5984 18.92 53.5104 18.68 54.3744 18.2C55.2704 17.72 56.0384 17.08 56.6784 16.28C57.3504 15.448 57.8784 14.52 58.2624 13.496C58.6464 12.472 58.8384 11.416 58.8384 10.328C58.8384 9.24 58.6464 8.28 58.2624 7.448C57.8784 6.616 57.3504 5.96 56.6784 5.48C56.0064 5 55.2384 4.76 54.3744 4.76H45.4464L42.4224 18.92H51.6384ZM63.5225 35L70.7225 0.919998H75.0425L69.1385 28.904L93.6185 0.919998H97.6505L90.4505 35H86.1305L92.0825 7.352L67.7945 35H63.5225ZM97.0044 35.096L97.7724 31.304C98.9564 31.304 100.044 31 101.036 30.392C102.06 29.752 103.036 28.664 103.964 27.128C104.892 25.592 105.804 23.496 106.7 20.84C107.628 18.152 108.588 14.776 109.58 10.712L111.932 0.919998H133.292L126.092 35H121.772L128.204 4.76H115.148L113.468 11.816C112.348 16.392 111.228 20.2 110.108 23.24C109.02 26.248 107.836 28.616 106.556 30.344C105.308 32.072 103.9 33.304 102.332 34.04C100.796 34.744 99.0204 35.096 97.0044 35.096ZM141.364 0.919998H162.964L162.148 4.76H144.868L142.516 15.8H157.54L156.772 19.4H141.748L139.252 31.16H156.964L156.148 35H134.116L141.364 0.919998ZM176.216 4.76H165.128L165.944 0.919998H192.44L191.624 4.76H180.536L174.104 35H169.784L176.216 4.76ZM190.085 35L197.285 0.919998H201.605L198.869 13.832H204.773C207.269 13.832 209.269 14.28 210.773 15.176C212.309 16.04 213.381 17.272 213.989 18.872C214.597 20.44 214.725 22.28 214.373 24.392C214.053 26.376 213.333 28.184 212.213 29.816C211.125 31.416 209.685 32.68 207.893 33.608C206.133 34.536 204.053 35 201.653 35H190.085ZM195.221 31.208H201.653C203.349 31.208 204.773 30.888 205.925 30.248C207.077 29.608 207.989 28.776 208.661 27.752C209.333 26.696 209.765 25.576 209.957 24.392C210.181 23.208 210.149 22.104 209.861 21.08C209.605 20.056 208.997 19.224 208.037 18.584C207.109 17.944 205.733 17.624 203.909 17.624H198.053L195.221 31.208ZM224.789 0.967998H229.109L221.861 35H217.541L224.789 0.967998ZM241.788 35L248.988 0.919998H253.308L247.404 28.904L271.884 0.919998H275.916L268.716 35H264.396L270.348 7.352L246.06 35H241.788ZM295.817 0.919998H312.041C313.321 0.919998 314.377 1.256 315.209 1.928C316.073 2.6 316.713 3.464 317.129 4.52C317.577 5.576 317.801 6.696 317.801 7.88C317.801 9.224 317.529 10.536 316.985 11.816C316.441 13.064 315.673 14.184 314.681 15.176C313.689 16.168 312.537 16.952 311.225 17.528C312.633 18.008 313.721 18.872 314.489 20.12C315.257 21.336 315.641 22.76 315.641 24.392C315.641 25.96 315.321 27.4 314.681 28.712C314.041 30.024 313.161 31.144 312.041 32.072C310.921 33 309.673 33.72 308.297 34.232C306.921 34.744 305.481 35 303.977 35H288.569L295.817 0.919998ZM304.745 31.256C305.577 31.256 306.393 31.064 307.193 30.68C307.993 30.296 308.697 29.784 309.305 29.144C309.945 28.472 310.441 27.72 310.793 26.888C311.177 26.024 311.369 25.144 311.369 24.248C311.369 23.384 311.209 22.6 310.889 21.896C310.601 21.192 310.169 20.632 309.593 20.216C309.049 19.768 308.377 19.544 307.577 19.544H296.153L293.705 31.256H304.745ZM307.049 16.04C307.849 16.04 308.617 15.864 309.353 15.512C310.121 15.128 310.793 14.616 311.369 13.976C311.977 13.336 312.441 12.6 312.761 11.768C313.113 10.936 313.289 10.056 313.289 9.128C313.289 7.848 312.969 6.792 312.329 5.96C311.721 5.096 310.857 4.664 309.737 4.664H299.321L296.921 16.04H307.049ZM319.648 35L326.848 0.919998H331.168L328.432 13.832H334.336C336.832 13.832 338.832 14.28 340.336 15.176C341.872 16.04 342.944 17.272 343.552 18.872C344.16 20.44 344.288 22.28 343.936 24.392C343.616 26.376 342.896 28.184 341.776 29.816C340.688 31.416 339.248 32.68 337.456 33.608C335.696 34.536 333.616 35 331.216 35H319.648ZM324.784 31.208H331.216C332.912 31.208 334.336 30.888 335.488 30.248C336.64 29.608 337.552 28.776 338.224 27.752C338.896 26.696 339.328 25.576 339.52 24.392C339.744 23.208 339.712 22.104 339.424 21.08C339.168 20.056 338.56 19.224 337.6 18.584C336.672 17.944 335.296 17.624 333.472 17.624H327.616L324.784 31.208ZM354.352 0.967998H358.672L351.424 35H347.104L354.352 0.967998ZM358.051 35.096L358.819 31.304C360.003 31.304 361.091 31 362.083 30.392C363.107 29.752 364.083 28.664 365.011 27.128C365.939 25.592 366.851 23.496 367.747 20.84C368.675 18.152 369.635 14.776 370.627 10.712L372.979 0.919998H394.339L387.139 35H382.819L389.251 4.76H376.195L374.515 11.816C373.395 16.392 372.275 20.2 371.155 23.24C370.067 26.248 368.883 28.616 367.603 30.344C366.355 32.072 364.947 33.304 363.379 34.04C361.843 34.744 360.067 35.096 358.051 35.096ZM402.411 0.919998H424.011L423.195 4.76H405.915L403.563 15.8H418.587L417.819 19.4H402.795L400.299 31.16H418.011L417.195 35H395.163L402.411 0.919998ZM437.263 4.76H426.175L426.991 0.919998H453.487L452.671 4.76H441.583L435.151 35H430.831L437.263 4.76ZM451.132 35L458.332 0.919998H462.652L459.916 13.832H465.82C468.316 13.832 470.316 14.28 471.82 15.176C473.356 16.04 474.428 17.272 475.036 18.872C475.644 20.44 475.772 22.28 475.42 24.392C475.1 26.376 474.38 28.184 473.26 29.816C472.172 31.416 470.732 32.68 468.94 33.608C467.18 34.536 465.1 35 462.7 35H451.132ZM456.268 31.208H462.7C464.396 31.208 465.82 30.888 466.972 30.248C468.124 29.608 469.036 28.776 469.708 27.752C470.38 26.696 470.812 25.576 471.004 24.392C471.228 23.208 471.196 22.104 470.908 21.08C470.652 20.056 470.044 19.224 469.084 18.584C468.156 17.944 466.78 17.624 464.956 17.624H459.1L456.268 31.208ZM485.836 0.967998H490.156L482.908 35H478.588L485.836 0.967998ZM489.68 38.888L491.552 34.616H490.112L491.168 29.624H495.104L494.048 34.616L491.744 38.888H489.68Z" fill="#E6DFD7"/>
</svg>
