<svg width="685" height="68" viewBox="0 0 685 68" fill="none" xmlns="http://www.w3.org/2000/svg">
<path opacity="0.7" d="M0.16 67V-1.16H8.8V28.312H17.92L40.384 -1.16H50.368L25.024 31.864L52.096 67H41.536L18.112 36.184H8.8V67H0.16ZM86.4955 67.48C81.6955 67.48 77.3435 66.52 73.4395 64.6C69.5355 62.68 66.1435 60.088 63.2635 56.824C60.4475 53.496 58.2715 49.784 56.7355 45.688C55.1995 41.528 54.4315 37.272 54.4315 32.92C54.4315 28.376 55.2315 24.056 56.8315 19.96C58.4955 15.8 60.7675 12.12 63.6475 8.92C66.5915 5.656 70.0155 3.096 73.9195 1.23999C77.8235 -0.680004 82.0795 -1.64 86.6875 -1.64C91.4875 -1.64 95.8395 -0.648003 99.7435 1.336C103.648 3.32 107.008 5.976 109.824 9.304C112.64 12.632 114.816 16.344 116.352 20.44C117.888 24.536 118.656 28.728 118.656 33.016C118.656 37.56 117.856 41.912 116.256 46.072C114.656 50.168 112.384 53.848 109.44 57.112C106.56 60.312 103.168 62.84 99.2635 64.696C95.3595 66.552 91.1035 67.48 86.4955 67.48ZM63.1675 32.92C63.1675 36.376 63.7115 39.736 64.7995 43C65.9515 46.2 67.5515 49.048 69.5995 51.544C71.6475 54.04 74.1115 56.024 76.9915 57.496C79.8715 58.968 83.0715 59.704 86.5915 59.704C90.2395 59.704 93.5035 58.936 96.3835 57.4C99.2635 55.864 101.696 53.816 103.68 51.256C105.728 48.696 107.264 45.816 108.288 42.616C109.376 39.416 109.92 36.184 109.92 32.92C109.92 29.464 109.344 26.136 108.192 22.936C107.104 19.736 105.504 16.888 103.392 14.392C101.344 11.832 98.8795 9.848 95.9995 8.44C93.1835 6.968 90.0475 6.232 86.5915 6.232C82.9435 6.232 79.6795 7 76.7995 8.536C73.9195 10.008 71.4555 12.024 69.4075 14.584C67.4235 17.144 65.8875 20.024 64.7995 23.224C63.7115 26.36 63.1675 29.592 63.1675 32.92ZM189.604 67V14.968L167.14 55H161.86L139.3 14.968V67H130.66V-1.16H139.78L164.452 43.096L189.22 -1.16H198.244V67H189.604ZM241.446 67V60.76C237.158 60.568 233.126 59.736 229.35 58.264C225.574 56.792 222.246 54.744 219.366 52.12C216.486 49.496 214.214 46.392 212.55 42.808C210.95 39.16 210.15 35.16 210.15 30.808C210.15 26.2 211.014 22.104 212.742 18.52C214.47 14.872 216.774 11.768 219.654 9.20799C222.598 6.584 225.926 4.568 229.638 3.16C233.414 1.752 237.35 0.951996 241.446 0.759995V-4.328H249.702V0.759995C253.862 0.951996 257.83 1.784 261.606 3.256C265.382 4.728 268.71 6.776 271.59 9.4C274.534 11.96 276.838 15.064 278.502 18.712C280.166 22.296 280.998 26.328 280.998 30.808C280.998 35.288 280.134 39.352 278.406 43C276.742 46.584 274.438 49.688 271.494 52.312C268.55 54.872 265.19 56.888 261.414 58.36C257.702 59.768 253.798 60.568 249.702 60.76V67H241.446ZM241.638 53.656V7.86399C237.478 8.056 233.638 9.112 230.118 11.032C226.662 12.888 223.91 15.48 221.862 18.808C219.814 22.136 218.79 26.136 218.79 30.808C218.79 34.328 219.398 37.496 220.614 40.312C221.894 43.064 223.59 45.4 225.702 47.32C227.878 49.24 230.342 50.744 233.094 51.832C235.846 52.92 238.694 53.528 241.638 53.656ZM249.51 53.656C253.67 53.464 257.478 52.44 260.934 50.584C264.39 48.664 267.142 46.04 269.19 42.712C271.302 39.32 272.358 35.352 272.358 30.808C272.358 27.288 271.75 24.152 270.534 21.4C269.318 18.648 267.622 16.28 265.446 14.296C263.334 12.312 260.902 10.776 258.15 9.688C255.398 8.6 252.518 7.992 249.51 7.86399V53.656ZM320.683 67.48C315.883 67.48 311.531 66.52 307.627 64.6C303.723 62.68 300.331 60.088 297.451 56.824C294.635 53.496 292.459 49.784 290.923 45.688C289.387 41.528 288.619 37.272 288.619 32.92C288.619 28.376 289.419 24.056 291.019 19.96C292.683 15.8 294.955 12.12 297.835 8.92C300.779 5.656 304.203 3.096 308.107 1.23999C312.011 -0.680004 316.267 -1.64 320.875 -1.64C325.675 -1.64 330.027 -0.648003 333.931 1.336C337.835 3.32 341.195 5.976 344.011 9.304C346.827 12.632 349.003 16.344 350.539 20.44C352.075 24.536 352.843 28.728 352.843 33.016C352.843 37.56 352.043 41.912 350.443 46.072C348.843 50.168 346.571 53.848 343.627 57.112C340.747 60.312 337.355 62.84 333.451 64.696C329.547 66.552 325.291 67.48 320.683 67.48ZM297.355 32.92C297.355 36.376 297.899 39.736 298.987 43C300.139 46.2 301.739 49.048 303.787 51.544C305.835 54.04 308.299 56.024 311.179 57.496C314.059 58.968 317.259 59.704 320.779 59.704C324.427 59.704 327.691 58.936 330.571 57.4C333.451 55.864 335.883 53.816 337.867 51.256C339.915 48.696 341.451 45.816 342.475 42.616C343.563 39.416 344.107 36.184 344.107 32.92C344.107 29.464 343.531 26.136 342.379 22.936C341.291 19.736 339.691 16.888 337.579 14.392C335.531 11.832 333.067 9.848 330.187 8.44C327.371 6.968 324.235 6.232 320.779 6.232C317.131 6.232 313.867 7 310.987 8.536C308.107 10.008 305.643 12.024 303.595 14.584C301.611 17.144 300.075 20.024 298.987 23.224C297.899 26.36 297.355 29.592 297.355 32.92ZM364.848 67V-1.16H393.264C396.272 -1.16 399.024 -0.520004 401.52 0.759995C404.016 1.976 406.192 3.64 408.048 5.752C409.904 7.8 411.344 10.136 412.368 12.76C413.392 15.32 413.904 17.944 413.904 20.632C413.904 24.344 413.072 27.896 411.408 31.288C409.744 34.616 407.408 37.336 404.4 39.448C401.392 41.496 397.872 42.52 393.84 42.52H373.488V67H364.848ZM373.488 34.84H393.36C395.728 34.84 397.776 34.2 399.504 32.92C401.296 31.64 402.672 29.912 403.632 27.736C404.656 25.56 405.167 23.192 405.167 20.632C405.167 17.944 404.592 15.544 403.44 13.432C402.288 11.256 400.784 9.56 398.928 8.344C397.072 7.128 395.024 6.51999 392.784 6.51999H373.488V34.84ZM473.812 6.51999H450.292V67H441.652V6.51999H418.132V-1.16H473.812V6.51999ZM538.445 -1.16V67H529.805V35.992H492.269V67H483.629V-1.16H492.269V28.312H529.805V-1.16H538.445ZM554.785 67V-1.16H563.425V24.664H579.745C584.737 24.664 588.897 25.56 592.225 27.352C595.553 29.08 598.049 31.544 599.713 34.744C601.441 37.88 602.305 41.56 602.305 45.784C602.305 49.752 601.473 53.368 599.809 56.632C598.145 59.832 595.681 62.36 592.417 64.216C589.153 66.072 585.121 67 580.321 67H554.785ZM563.425 59.8H579.169C582.561 59.8 585.313 59.16 587.425 57.88C589.537 56.536 591.073 54.808 592.033 52.696C592.993 50.52 593.473 48.216 593.473 45.784C593.473 43.352 593.025 41.08 592.129 38.968C591.297 36.856 589.825 35.16 587.713 33.88C585.601 32.536 582.721 31.864 579.073 31.864H563.425V59.8ZM613.633 67V-1.064H622.273V67H613.633ZM684.87 59.32V67H638.598V-1.16H684.006V6.51999H647.238V28.6H679.206V35.8H647.238V59.32H684.87Z" fill="#E6DFD7"/>
</svg>
