<svg width="45" height="29" viewBox="0 0 45 29" fill="none" xmlns="http://www.w3.org/2000/svg">
<path fill-rule="evenodd" clip-rule="evenodd" d="M44.8198 14.4524C44.8198 13.9524 44.5955 13.473 44.1962 13.1194C43.797 12.7659 43.2554 12.5673 42.6908 12.5673H2.94886C2.3842 12.5673 1.84267 12.7659 1.4434 13.1194C1.04413 13.473 0.819824 13.9524 0.819824 14.4524C0.819824 14.9524 1.04413 15.4318 1.4434 15.7854C1.84267 16.1389 2.3842 16.3375 2.94886 16.3375H42.6908C43.2554 16.3375 43.797 16.1389 44.1962 15.7854C44.5955 15.4318 44.8198 14.9524 44.8198 14.4524ZM35.736 1.88509C35.736 1.38514 35.5116 0.905655 35.1124 0.552131C34.7131 0.198607 34.1716 0 33.6069 0H2.94886C2.3842 0 1.84267 0.198607 1.4434 0.552131C1.04413 0.905655 0.819824 1.38514 0.819824 1.88509C0.819824 2.38505 1.04413 2.86453 1.4434 3.21806C1.84267 3.57158 2.3842 3.77019 2.94886 3.77019H33.6069C34.1716 3.77019 34.7131 3.57158 35.1124 3.21806C35.5116 2.86453 35.736 2.38505 35.736 1.88509ZM35.736 27.0197C35.736 26.5197 35.5116 26.0403 35.1124 25.6867C34.7131 25.3332 34.1716 25.1346 33.6069 25.1346H2.94886C2.3842 25.1346 1.84267 25.3332 1.4434 25.6867C1.04413 26.0403 0.819824 26.5197 0.819824 27.0197C0.819824 27.5196 1.04413 27.9991 1.4434 28.3527C1.84267 28.7062 2.3842 28.9048 2.94886 28.9048H33.6069C34.1716 28.9048 34.7131 28.7062 35.1124 28.3527C35.5116 27.9991 35.736 27.5196 35.736 27.0197Z" fill="#2C3135"/>
</svg>
