<svg width="862" height="85" viewBox="0 0 862 85" fill="none" xmlns="http://www.w3.org/2000/svg">
<path opacity="0.5" d="M68.72 -1.2V84H57.92V45.24H11V84H0.2V-1.2H11V35.64H57.92V-1.2H68.72ZM115.065 -1.2H124.185L158.985 84H147.465L137.385 59.04H101.625L91.6653 84H80.1453L115.065 -1.2ZM134.985 50.64L119.625 11.28L103.785 50.64H134.985ZM170.356 84V-1.2H181.156V74.4H213.076V-1.2H223.876V74.4H255.796V-1.2H266.596V84H170.356ZM287.558 84V-1.2H298.358V69L347.678 -1.2H357.758V84H346.958V15.12L298.238 84H287.558ZM418.187 84.36V75.24H423.587C425.587 75.24 427.067 74.76 428.027 73.8C429.067 72.76 430.147 71.24 431.267 69.24L434.387 62.52L398.867 -1.2H410.747L439.307 51.48L463.307 -1.2H474.707L439.547 74.4C437.787 78 435.907 80.56 433.907 82.08C431.987 83.6 429.307 84.36 425.867 84.36H418.187ZM478.196 40.8C478.196 35.6 479.076 30.52 480.836 25.56C482.676 20.52 485.316 15.96 488.756 11.88C492.276 7.72 496.556 4.43999 501.596 2.04C506.636 -0.440005 512.356 -1.68001 518.756 -1.68001C526.356 -1.68001 532.876 0.0799956 538.316 3.6C543.756 7.04 547.796 11.48 550.436 16.92L541.916 22.44C540.236 18.84 538.076 16 535.436 13.92C532.876 11.76 530.076 10.24 527.036 9.36C524.076 8.48 521.156 8.04 518.276 8.04C513.556 8.04 509.356 9 505.676 10.92C502.076 12.84 499.036 15.4 496.556 18.6C494.076 21.8 492.196 25.4 490.916 29.4C489.716 33.32 489.116 37.28 489.116 41.28C489.116 45.68 489.836 49.92 491.276 54C492.796 58.08 494.876 61.68 497.516 64.8C500.156 67.92 503.276 70.4 506.876 72.24C510.476 74.08 514.396 75 518.636 75C521.596 75 524.636 74.48 527.756 73.44C530.876 72.4 533.796 70.8 536.516 68.64C539.236 66.4 541.396 63.52 542.996 60L551.996 64.92C550.236 69.16 547.516 72.76 543.836 75.72C540.156 78.68 536.036 80.92 531.476 82.44C526.996 83.96 522.556 84.72 518.156 84.72C512.316 84.72 506.956 83.48 502.076 81C497.196 78.44 492.956 75.08 489.356 70.92C485.836 66.68 483.076 61.96 481.076 56.76C479.156 51.48 478.196 46.16 478.196 40.8ZM621.913 84V8.39999H590.113L589.633 25.32C589.233 36.92 588.353 46.56 586.992 54.24C585.713 61.84 583.833 67.84 581.353 72.24C578.953 76.56 575.953 79.64 572.353 81.48C568.753 83.32 564.473 84.24 559.513 84.24V74.76C562.553 74.76 565.233 74 567.553 72.48C569.873 70.96 571.833 68.32 573.433 64.56C575.113 60.72 576.433 55.4 577.393 48.6C578.353 41.8 578.993 33.12 579.313 22.56L580.033 -1.2H632.713V84H621.913ZM662.289 84.36V75.24H667.689C669.689 75.24 671.169 74.76 672.129 73.8C673.169 72.76 674.249 71.24 675.369 69.24L678.489 62.52L642.969 -1.2H654.849L683.409 51.48L707.409 -1.2H718.809L683.649 74.4C681.889 78 680.009 80.56 678.009 82.08C676.089 83.6 673.409 84.36 669.969 84.36H662.289ZM727.817 84V-1.2H777.377V8.39999H738.617V84H727.817ZM791.23 84V-1.2H802.03V69L851.35 -1.2H861.43V84H850.63V15.12L801.91 84H791.23Z" fill="#F4F3EF"/>
</svg>
