<svg width="187" height="36" viewBox="0 0 187 36" fill="none" xmlns="http://www.w3.org/2000/svg">
<path opacity="0.7" d="M1.473 35L2.241 31.352H4.065C5.377 31.352 6.529 31.048 7.521 30.44C8.513 29.8 9.361 28.824 10.065 27.512L10.353 27.032L0.705 0.919998H4.833L12.513 22.856L24.081 0.919998H28.305L13.377 28.184C12.513 29.784 11.601 31.096 10.641 32.12C9.713 33.112 8.641 33.848 7.425 34.328C6.241 34.776 4.801 35 3.105 35H1.473ZM43.1805 35.288C40.7805 35.288 38.6525 34.792 36.7965 33.8C34.9405 32.776 33.4045 31.432 32.1885 29.768C30.9725 28.072 30.1085 26.184 29.5965 24.104C29.1165 21.992 29.0205 19.864 29.3085 17.72C29.5965 15.64 30.2525 13.608 31.2765 11.624C32.3005 9.608 33.6445 7.784 35.3085 6.152C36.9725 4.488 38.9085 3.176 41.1165 2.216C43.3245 1.224 45.7405 0.727998 48.3645 0.727998C51.5005 0.727998 54.0765 1.432 56.0925 2.84C58.1085 4.216 59.5165 5.992 60.3165 8.168L56.6205 10.376C56.1405 8.936 55.4205 7.8 54.4605 6.968C53.5005 6.104 52.4125 5.496 51.1965 5.144C50.0125 4.792 48.8125 4.616 47.5965 4.616C45.6445 4.616 43.8525 5 42.2205 5.768C40.6205 6.536 39.2125 7.56 37.9965 8.84C36.8125 10.12 35.8525 11.56 35.1165 13.16C34.3805 14.728 33.9005 16.312 33.6765 17.912C33.4205 19.672 33.4845 21.368 33.8685 23C34.2525 24.632 34.8925 26.072 35.7885 27.32C36.7165 28.568 37.8685 29.56 39.2445 30.296C40.6205 31.032 42.1885 31.4 43.9485 31.4C45.1965 31.4 46.4925 31.192 47.8365 30.776C49.2125 30.36 50.5245 29.72 51.7725 28.856C53.0205 27.96 54.0765 26.808 54.9405 25.4L58.2525 27.368C57.2605 29.064 55.9165 30.504 54.2205 31.688C52.5565 32.872 50.7485 33.768 48.7965 34.376C46.8765 34.984 45.0045 35.288 43.1805 35.288ZM60.4575 35.096L61.2255 31.304C62.4095 31.304 63.4975 31 64.4895 30.392C65.5135 29.752 66.4895 28.664 67.4175 27.128C68.3455 25.592 69.2575 23.496 70.1535 20.84C71.0815 18.152 72.0415 14.776 73.0335 10.712L75.3855 0.919998H96.7455L89.5455 35H85.2255L91.6575 4.76H78.6015L76.9215 11.816C75.8015 16.392 74.6815 20.2 73.5615 23.24C72.4735 26.248 71.2895 28.616 70.0095 30.344C68.7615 32.072 67.3535 33.304 65.7855 34.04C64.2495 34.744 62.4735 35.096 60.4575 35.096ZM101.457 35L102.225 31.352H104.049C105.361 31.352 106.513 31.048 107.505 30.44C108.497 29.8 109.345 28.824 110.049 27.512L110.337 27.032L100.689 0.919998H104.817L112.497 22.856L124.065 0.919998H128.289L113.361 28.184C112.497 29.784 111.585 31.096 110.625 32.12C109.697 33.112 108.625 33.848 107.409 34.328C106.225 34.776 104.785 35 103.089 35H101.457ZM127.565 35L134.765 0.919998H154.589L153.773 4.76H138.317L131.885 35H127.565ZM152.038 35L159.238 0.919998H163.558L157.654 28.904L182.134 0.919998H186.166L178.966 35H174.646L180.598 7.352L156.31 35H152.038Z" fill="#2C3135"/>
</svg>
