<svg width="22" height="22" viewBox="0 0 22 22" fill="none" xmlns="http://www.w3.org/2000/svg">
<g clip-path="url(#clip0_1608_2858)">
<path d="M20.9207 10.6918L21.9689 13.665C22.0098 13.7828 22.0178 13.9095 21.992 14.0315C21.9663 14.1535 21.9078 14.2662 21.8228 14.3574C21.7304 14.4574 21.6169 14.5356 21.4905 14.5861C21.3642 14.6367 21.2281 14.6584 21.0922 14.6497H20.4569C20.3078 14.6534 20.1592 14.6297 20.0186 14.5798C19.8938 14.5338 19.7824 14.4573 19.6946 14.3574L18.2398 12.6739H11.601L14.2184 20.1957C14.2786 20.3309 14.2974 20.4808 14.2726 20.6266C14.2477 20.7725 14.1802 20.9077 14.0787 21.0153C13.9655 21.142 13.8247 21.2412 13.6672 21.305C13.5097 21.3689 13.3397 21.3958 13.1702 21.3837H12.7318C12.5435 21.3846 12.3564 21.3523 12.1791 21.2884C12.0956 21.2585 12.0188 21.2122 11.9533 21.1522C11.8879 21.0922 11.8351 21.0197 11.798 20.939L6.03592 12.6803H2.33219C1.72284 12.7014 1.12737 12.4954 0.661388 12.1022C0.457904 11.9286 0.295399 11.7121 0.185554 11.4683C0.0757095 11.2244 0.0212537 10.9592 0.0261009 10.6918C0.0185174 10.424 0.0717437 10.158 0.181778 9.91371C0.291813 9.66944 0.455792 9.45328 0.661388 9.2815C1.12618 8.89563 1.71565 8.69237 2.31949 8.70974H6.01051L11.7281 0.495478C11.8467 0.329035 12.0095 0.199179 12.1982 0.120658C12.3806 0.0413212 12.5774 0.000239978 12.7763 -4.636e-05H13.0114C13.1952 -0.0101305 13.3791 0.0198713 13.5502 0.0878816C13.7213 0.155892 13.8756 0.260285 14.0024 0.393832C14.1156 0.519138 14.1915 0.673488 14.2218 0.839565C14.2521 1.00564 14.2355 1.17688 14.174 1.33406L11.6328 8.70974H18.2398L19.6374 7.12788C19.7508 7.00124 19.8892 6.89956 20.044 6.82929C20.2119 6.76366 20.391 6.7313 20.5713 6.734H20.8063C20.9807 6.7254 21.1546 6.75636 21.3153 6.82458C21.4759 6.89279 21.619 6.99648 21.7339 7.12788C21.8434 7.23419 21.9189 7.37072 21.9506 7.52007C21.9822 7.66942 21.9687 7.82482 21.9118 7.96646L20.9207 10.6918Z" fill="#8C9DA5"/>
</g>
<defs>
<clipPath id="clip0_1608_2858">
<rect width="22" height="21.3901" fill="white"/>
</clipPath>
</defs>
</svg>
