<svg width="22" height="24" viewBox="0 0 22 24" fill="none" xmlns="http://www.w3.org/2000/svg">
<g clip-path="url(#clip0_1608_2846)">
<path d="M16.8152 1.99479C14.2801 1.42844 12.2574 0.390137 10.9966 0.390137C9.73583 0.390137 7.81428 1.67117 5.17806 2.04873C0.964143 2.66228 0 2.68251 0 4.40178C0 19.4505 9.19644 23.7116 10.9966 23.7116C13.1272 23.7116 21.9933 19.4505 21.9933 4.40178C21.9933 2.19032 19.1076 2.48698 16.8152 1.99479ZM11.4214 18.3448C11.3936 18.3957 11.3527 18.4381 11.3029 18.4678C11.253 18.4975 11.1962 18.5132 11.1382 18.5133H9.11554C9.06242 18.5137 9.01003 18.5009 8.96299 18.4763C8.91596 18.4516 8.87573 18.4157 8.84585 18.3717L6.20962 14.4478C6.1731 14.3941 6.15357 14.3306 6.15357 14.2657C6.15357 14.2008 6.1731 14.1374 6.20962 14.0837L8.8391 10.1327C8.87005 10.0883 8.91144 10.0521 8.95965 10.0274C9.00785 10.0027 9.06138 9.99025 9.11554 9.99112H11.1382C11.1998 9.99436 11.2591 10.0151 11.3093 10.051C11.3595 10.0868 11.3984 10.1362 11.4214 10.1934C11.4497 10.2438 11.4646 10.3007 11.4646 10.3586C11.4646 10.4164 11.4497 10.4733 11.4214 10.5238L9.0144 14.2387L11.3809 17.9874C11.4207 18.0371 11.4456 18.097 11.4528 18.1603C11.46 18.2235 11.4491 18.2875 11.4214 18.3448ZM13.2755 14.2994H11.2528L13.7272 10.3485L11.2124 6.41772H13.2351L15.8713 10.3417L13.2755 14.2994Z" fill="#8C9DA5"/>
<path d="M8.36057 14.0971L10.5181 10.645H9.24381L6.83008 14.2386L9.24381 17.839H10.5114L8.36057 14.4409C8.32748 14.3897 8.30988 14.33 8.30988 14.269C8.30988 14.208 8.32748 14.1483 8.36057 14.0971Z" fill="#8C9DA5"/>
</g>
<defs>
<clipPath id="clip0_1608_2846">
<rect width="22" height="23.3282" fill="white" transform="translate(0 0.390137)"/>
</clipPath>
</defs>
</svg>
