<svg width="22" height="23" viewBox="0 0 22 23" fill="none" xmlns="http://www.w3.org/2000/svg">
<g clip-path="url(#clip0_1608_2872)">
<path d="M10.8438 11.3157C12.2997 11.3157 13.5604 10.7936 14.5905 9.76332C15.6206 8.73324 16.1428 7.47289 16.1428 6.01682C16.1428 4.56126 15.6206 3.30074 14.5903 2.27033C13.5601 1.24043 12.2996 0.718262 10.8438 0.718262C9.38777 0.718262 8.12741 1.24043 7.09734 2.2705C6.06726 3.30057 5.54492 4.5611 5.54492 6.01682C5.54492 7.47289 6.06726 8.73341 7.0975 9.76348C8.12775 10.7934 9.38828 11.3157 10.8438 11.3157Z" fill="#8C9DA5"/>
<path d="M20.1149 17.6352C20.0852 17.2066 20.0251 16.7389 19.9367 16.2451C19.8474 15.7476 19.7324 15.2773 19.5948 14.8475C19.4526 14.4032 19.2592 13.9645 19.0202 13.544C18.7721 13.1076 18.4808 12.7276 18.1538 12.4149C17.8119 12.0878 17.3933 11.8248 16.9092 11.6329C16.4268 11.4421 15.8922 11.3454 15.3204 11.3454C15.0958 11.3454 14.8786 11.4375 14.4592 11.7106C14.201 11.879 13.899 12.0737 13.562 12.289C13.2738 12.4726 12.8834 12.6447 12.4012 12.8004C11.9307 12.9527 11.453 13.0299 10.9815 13.0299C10.5101 13.0299 10.0325 12.9527 9.56155 12.8004C9.07983 12.6448 8.68942 12.4728 8.40157 12.2892C8.06772 12.0758 7.76559 11.8811 7.50359 11.7104C7.08464 11.4374 6.86728 11.3452 6.6427 11.3452C6.07068 11.3452 5.53625 11.4421 5.05403 11.6331C4.5703 11.8246 4.15152 12.0876 3.80928 12.4151C3.48248 12.7279 3.19093 13.1078 2.94319 13.544C2.70435 13.9645 2.51099 14.403 2.36865 14.8477C2.23119 15.2775 2.11621 15.7476 2.02692 16.2451C1.93846 16.7383 1.87837 17.2061 1.84866 17.6357C1.81946 18.0567 1.80469 18.4936 1.80469 18.9349C1.80469 20.0833 2.16975 21.013 2.88965 21.6986C3.60065 22.3752 4.54143 22.7185 5.68547 22.7185H16.2786C17.4227 22.7185 18.3631 22.3754 19.0743 21.6986C19.7943 21.0135 20.1594 20.0836 20.1594 18.9347C20.1592 18.4914 20.1443 18.0542 20.1149 17.6352Z" fill="#8C9DA5"/>
</g>
<defs>
<clipPath id="clip0_1608_2872">
<rect width="22" height="22" fill="white" transform="translate(0 0.718262)"/>
</clipPath>
</defs>
</svg>
