<svg width="22" height="23" viewBox="0 0 22 23" fill="none" xmlns="http://www.w3.org/2000/svg">
<g clip-path="url(#clip0_1608_2883)">
<path d="M11.7337 0.718262C7.69021 0.718262 4.40039 4.00808 4.40039 8.05161C4.40039 9.26548 4.70388 10.469 5.28082 11.5365L11.3327 22.4819C11.4133 22.6279 11.5668 22.7183 11.7337 22.7183C11.9007 22.7183 12.0542 22.6279 12.1348 22.4819L18.1889 11.5329C18.7636 10.469 19.0671 9.26543 19.0671 8.05157C19.0671 4.00808 15.7773 0.718262 11.7337 0.718262ZM11.7337 11.7183C9.71197 11.7183 8.06709 10.0734 8.06709 8.05161C8.06709 6.02984 9.71197 4.38496 11.7337 4.38496C13.7555 4.38496 15.4004 6.02984 15.4004 8.05161C15.4004 10.0734 13.7555 11.7183 11.7337 11.7183Z" fill="#8C9DA5"/>
</g>
<defs>
<clipPath id="clip0_1608_2883">
<rect width="22" height="22" fill="white" transform="translate(0 0.718262)"/>
</clipPath>
</defs>
</svg>
