<svg width="22" height="23" viewBox="0 0 22 23" fill="none" xmlns="http://www.w3.org/2000/svg">
<g clip-path="url(#clip0_1608_2862)">
<mask id="mask0_1608_2862" style="mask-type:luminance" maskUnits="userSpaceOnUse" x="0" y="0" width="22" height="23">
<path d="M22 0.390137H0V22.3901H22V0.390137Z" fill="white"/>
</mask>
<g mask="url(#mask0_1608_2862)">
<path d="M21.8 19.1898L18.8 16.1898L20.4 14.5898C20.6 14.3898 20.6 14.1898 20.6 13.9898C20.5 13.7898 20.4 13.5898 20.1 13.4898L11.8 11.3898C11.6 11.2898 11.3 11.3898 11.2 11.5898C11.1 11.7898 11 11.9898 11 12.1898L13.1 20.4898C13.2 20.6898 13.3 20.8898 13.6 20.9898C13.8 21.0898 14.1 20.9898 14.2 20.7898L15.8 19.1898L18.8 22.1898C19.1 22.4898 19.5 22.4898 19.7 22.1898L21.8 20.0898C22.1 19.8898 22.1 19.4898 21.8 19.1898Z" fill="#8C9DA5"/>
<path d="M11.8008 10.3899C12.2008 10.3899 12.6008 10.3899 13.0008 10.4899L17.4008 11.5899L17.0008 10.5899L17.7008 9.68994C17.9008 9.48994 17.9008 9.08994 17.7008 8.88994L17.0008 8.08994L17.4008 7.08994C17.5008 6.78994 17.4008 6.48994 17.1008 6.28994L16.1008 5.68994L16.2008 4.58994C16.2008 4.28994 16.0008 3.98994 15.7008 3.88994L14.6008 3.58994L14.3008 2.48994C14.2008 2.18994 13.9008 1.98994 13.6008 1.98994L12.5008 2.08994L11.9008 1.08994C11.7008 0.789941 11.4008 0.689941 11.1008 0.789941L10.1008 1.18994L9.30078 0.589941C9.10078 0.389941 8.70078 0.389941 8.50078 0.589941L7.70078 1.28994L6.70078 0.889941C6.30078 0.689941 6.00078 0.789941 5.80078 1.08994L5.20078 2.08994L4.10078 1.98994C3.80078 1.98994 3.50078 2.18994 3.40078 2.48994L3.20078 3.58994L2.10078 3.78994C1.80078 3.88994 1.60078 4.18994 1.60078 4.48994L1.70078 5.58994L0.700781 6.18994C0.400781 6.38994 0.300781 6.68994 0.500781 6.98994L0.900781 7.98994L0.200781 8.88994C0.000781253 9.08994 0.000781253 9.48994 0.200781 9.68994L0.900781 10.5899L0.500781 11.5899C0.400781 11.8899 0.500781 12.1899 0.800781 12.3899L1.80078 12.9899L1.70078 14.0899C1.70078 14.3899 1.90078 14.6899 2.20078 14.7899L3.30078 15.0899L3.60078 16.1899C3.70078 16.4899 4.00078 16.6899 4.30078 16.6899L5.40078 16.5899L6.00078 17.5899C6.20078 17.8899 6.50078 17.9899 6.80078 17.8899L7.80078 17.4899L8.70078 18.1899C8.90078 18.3899 9.30078 18.3899 9.50078 18.1899L10.4008 17.4899L11.3008 17.8899L10.3008 13.9899C10.2008 13.5899 10.1008 13.1899 10.1008 12.7899V12.3899C10.1008 11.3899 10.8008 10.5899 11.7008 10.4899L11.8008 10.3899Z" fill="#8C9DA5"/>
</g>
</g>
<defs>
<clipPath id="clip0_1608_2862">
<rect width="22" height="22" fill="white" transform="translate(0 0.390137)"/>
</clipPath>
</defs>
</svg>
