<svg width="22" height="22" viewBox="0 0 22 22" fill="none" xmlns="http://www.w3.org/2000/svg">
<path d="M11.0006 5.78101L3.15439 12.2494C3.15439 12.2585 3.1521 12.2719 3.14751 12.2902C3.14301 12.3084 3.14062 12.3216 3.14062 12.331V18.8809C3.14062 19.1174 3.22709 19.3223 3.39996 19.4949C3.57279 19.6676 3.77745 19.7545 4.01399 19.7545H9.25377V14.5144H12.7474V19.7547H17.9872C18.2237 19.7547 18.4286 19.668 18.6012 19.4949C18.7741 19.3225 18.8608 19.1174 18.8608 18.8809V12.331C18.8608 12.2946 18.8559 12.2672 18.8471 12.2494L11.0006 5.78101Z" fill="#8C9DA5"/>
<path d="M21.8482 10.7756L18.86 8.29206V2.72454C18.86 2.59726 18.8191 2.49259 18.737 2.41067C18.6555 2.32884 18.5508 2.28793 18.4233 2.28793H15.8033C15.6759 2.28793 15.5713 2.32884 15.4893 2.41067C15.4075 2.49259 15.3667 2.59731 15.3667 2.72454V5.38544L12.0372 2.60161C11.7464 2.36507 11.4006 2.24683 11.0003 2.24683C10.6 2.24683 10.2543 2.36507 9.96325 2.60161L0.151633 10.7756C0.0606786 10.8482 0.0108283 10.946 0.00155609 11.0689C-0.00766837 11.1916 0.0241154 11.2988 0.0970029 11.3897L0.943024 12.3995C1.01591 12.4814 1.11131 12.5314 1.2296 12.5497C1.33882 12.5589 1.44803 12.527 1.55724 12.4542L11 4.58033L20.4429 12.4542C20.5158 12.5176 20.6112 12.5493 20.7295 12.5493H20.7705C20.8886 12.5314 20.9838 12.481 21.0571 12.3993L21.9032 11.3897C21.9759 11.2986 22.0078 11.1916 21.9984 11.0687C21.989 10.9462 21.939 10.8484 21.8482 10.7756Z" fill="#8C9DA5"/>
</svg>
