<svg width="191" height="22" viewBox="0 0 191 22" fill="none" xmlns="http://www.w3.org/2000/svg">
<path d="M5.02083 9.53889C6.22083 12.0151 8.15 14.0408 10.5125 15.3008L12.3458 13.3714C12.575 13.1308 12.9042 13.0608 13.1917 13.157C14.125 13.4808 15.1292 13.6558 16.1667 13.6558C16.6292 13.6558 17 14.0451 17 14.5308V17.5933C17 18.0789 16.6292 18.4683 16.1667 18.4683C8.34167 18.4683 2 11.8095 2 3.59326C2 3.10764 2.375 2.71826 2.83333 2.71826H5.75C6.2125 2.71826 6.58333 3.10764 6.58333 3.59326C6.58333 4.68264 6.75 5.73701 7.05833 6.71701C7.15 7.01889 7.08333 7.36451 6.85417 7.60514L5.02083 9.53889Z" fill="#2C3135"/>
<path d="M47.224 13.6943H44.564V16.3543H43.612V13.6943H40.952V12.7423H43.612V10.0823H44.564V12.7423H47.224V13.6943ZM55.4558 8.03826C53.3698 10.5163 51.9698 13.5123 51.4238 16.7183H50.1078C50.8078 13.6103 52.2078 10.7123 54.1818 8.22026H48.8198V7.00226H55.4558V8.03826ZM63.9256 19.6863H63.1556C61.7556 17.8523 60.8736 15.3043 60.8736 13.0923C60.8736 10.8943 61.7556 8.34626 63.1556 6.51226H63.9256C62.6936 8.50026 62.0076 10.8663 62.0076 13.0923C62.0076 15.3323 62.6936 17.6843 63.9256 19.6863ZM69.3157 8.37426L67.8037 8.79426L68.7837 10.0403L68.0697 10.5443L67.2017 9.24226L66.3197 10.5443L65.6197 10.0403L66.5857 8.79426L65.0737 8.37426L65.3397 7.54826L66.7537 8.08026V6.51226H67.5657V8.08026L69.0497 7.54826L69.3157 8.37426ZM74.7571 8.37426L73.2451 8.79426L74.2251 10.0403L73.5111 10.5443L72.6431 9.24226L71.7611 10.5443L71.0611 10.0403L72.0271 8.79426L70.5151 8.37426L70.7811 7.54826L72.1951 8.08026V6.51226H73.0071V8.08026L74.4911 7.54826L74.7571 8.37426ZM80.1985 8.37426L78.6865 8.79426L79.6665 10.0403L78.9525 10.5443L78.0845 9.24226L77.2025 10.5443L76.5025 10.0403L77.4685 8.79426L75.9565 8.37426L76.2225 7.54826L77.6365 8.08026V6.51226H78.4485V8.08026L79.9325 7.54826L80.1985 8.37426ZM85.6399 8.37426L84.1279 8.79426L85.1079 10.0403L84.3939 10.5443L83.5259 9.24226L82.6439 10.5443L81.9439 10.0403L82.9099 8.79426L81.3979 8.37426L81.6639 7.54826L83.0779 8.08026V6.51226H83.8899V8.08026L85.3739 7.54826L85.6399 8.37426ZM89.8633 13.1063C89.8633 15.3043 88.9813 17.8523 87.5813 19.6863H86.8113C88.0433 17.6983 88.7293 15.3323 88.7293 13.1063C88.7293 10.8663 88.0433 8.51426 86.8113 6.51226H87.5813C88.9813 8.34626 89.8633 10.8943 89.8633 13.1063ZM99.6399 8.37426L98.1279 8.79426L99.1079 10.0403L98.3939 10.5443L97.5259 9.24226L96.6439 10.5443L95.9439 10.0403L96.9099 8.79426L95.3979 8.37426L95.6639 7.54826L97.0779 8.08026V6.51226H97.8899V8.08026L99.3739 7.54826L99.6399 8.37426ZM105.081 8.37426L103.569 8.79426L104.549 10.0403L103.835 10.5443L102.967 9.24226L102.085 10.5443L101.385 10.0403L102.351 8.79426L100.839 8.37426L101.105 7.54826L102.519 8.08026V6.51226H103.331V8.08026L104.815 7.54826L105.081 8.37426ZM109.697 13.3583H106.365V12.3503H109.697V13.3583ZM115.185 8.37426L113.673 8.79426L114.653 10.0403L113.939 10.5443L113.071 9.24226L112.189 10.5443L111.489 10.0403L112.455 8.79426L110.943 8.37426L111.209 7.54826L112.623 8.08026V6.51226H113.435V8.08026L114.919 7.54826L115.185 8.37426ZM120.626 8.37426L119.114 8.79426L120.094 10.0403L119.38 10.5443L118.512 9.24226L117.63 10.5443L116.93 10.0403L117.896 8.79426L116.384 8.37426L116.65 7.54826L118.064 8.08026V6.51226H118.876V8.08026L120.36 7.54826L120.626 8.37426ZM125.242 13.3583H121.91V12.3503H125.242V13.3583ZM130.73 8.37426L129.218 8.79426L130.198 10.0403L129.484 10.5443L128.616 9.24226L127.734 10.5443L127.034 10.0403L128 8.79426L126.488 8.37426L126.754 7.54826L128.168 8.08026V6.51226H128.98V8.08026L130.464 7.54826L130.73 8.37426ZM136.171 8.37426L134.659 8.79426L135.639 10.0403L134.925 10.5443L134.057 9.24226L133.175 10.5443L132.475 10.0403L133.441 8.79426L131.929 8.37426L132.195 7.54826L133.609 8.08026V6.51226H134.421V8.08026L135.905 7.54826L136.171 8.37426Z" fill="#2C3135"/>
</svg>
